<svg width="1516" height="680" viewBox="0 0 1516 680" fill="none" xmlns="http://www.w3.org/2000/svg">
<g clip-path="url(#clip0_88_6)">
<path opacity="0.5" d="M-3.05176e-05 0.406738H146.971V679.593H-3.05176e-05V0.406738Z" fill="#283489"/>
<g opacity="0.5">
<path d="M231.96 234.682C229.485 234.682 227.479 232.674 227.479 230.195C227.479 227.717 229.485 225.708 231.96 225.708C234.434 225.708 236.44 227.717 236.44 230.195C236.44 232.674 234.434 234.682 231.96 234.682Z" fill="#283489"/>
<path d="M179.15 234.682C176.675 234.682 174.669 232.674 174.669 230.195C174.669 227.717 176.675 225.708 179.15 225.708C181.624 225.708 183.63 227.717 183.63 230.195C183.63 232.674 181.624 234.682 179.15 234.682Z" fill="#283489"/>
<path d="M126.292 234.682C123.818 234.682 121.812 232.674 121.812 230.195C121.812 227.717 123.818 225.708 126.292 225.708C128.767 225.708 130.773 227.717 130.773 230.195C130.773 232.674 128.767 234.682 126.292 234.682Z" fill="#283489"/>
<path d="M73.4823 234.682C71.0077 234.682 69.0017 232.674 69.0017 230.195C69.0017 227.717 71.0077 225.708 73.4823 225.708C75.9569 225.708 77.963 227.717 77.963 230.195C77.963 232.674 75.9569 234.682 73.4823 234.682Z" fill="#283489"/>
<path d="M20.6246 234.682C18.15 234.682 16.144 232.674 16.144 230.195C16.144 227.717 18.15 225.708 20.6246 225.708C23.0992 225.708 25.1052 227.717 25.1052 230.195C25.1052 232.674 23.0992 234.682 20.6246 234.682Z" fill="#283489"/>
<path d="M231.96 181.798C229.485 181.798 227.479 179.789 227.479 177.311C227.479 174.833 229.485 172.824 231.96 172.824C234.434 172.824 236.44 174.833 236.44 177.311C236.44 179.789 234.434 181.798 231.96 181.798Z" fill="#283489"/>
<path d="M231.96 128.865C229.485 128.865 227.479 126.856 227.479 124.378C227.479 121.9 229.485 119.891 231.96 119.891C234.434 119.891 236.44 121.9 236.44 124.378C236.44 126.856 234.434 128.865 231.96 128.865Z" fill="#283489"/>
<path d="M231.96 75.9801C229.485 75.9801 227.479 73.9712 227.479 71.4931C227.479 69.015 229.485 67.0061 231.96 67.0061C234.434 67.0061 236.44 69.015 236.44 71.4931C236.44 73.9712 234.434 75.9801 231.96 75.9801Z" fill="#283489"/>
<path d="M231.96 23.0472C229.485 23.0472 227.479 21.0383 227.479 18.5602C227.479 16.0821 229.485 14.0732 231.96 14.0732C234.434 14.0732 236.44 16.0821 236.44 18.5602C236.44 21.0383 234.434 23.0472 231.96 23.0472Z" fill="#283489"/>
<path d="M179.15 181.798C176.675 181.798 174.669 179.789 174.669 177.311C174.669 174.833 176.675 172.824 179.15 172.824C181.624 172.824 183.63 174.833 183.63 177.311C183.63 179.789 181.624 181.798 179.15 181.798Z" fill="#283489"/>
<path d="M179.15 128.865C176.675 128.865 174.669 126.856 174.669 124.378C174.669 121.9 176.675 119.891 179.15 119.891C181.624 119.891 183.63 121.9 183.63 124.378C183.63 126.856 181.624 128.865 179.15 128.865Z" fill="#283489"/>
<path d="M179.15 75.9801C176.675 75.9801 174.669 73.9712 174.669 71.4931C174.669 69.015 176.675 67.0061 179.15 67.0061C181.624 67.0061 183.63 69.015 183.63 71.4931C183.63 73.9712 181.624 75.9801 179.15 75.9801Z" fill="#283489"/>
<path d="M179.15 23.0472C176.675 23.0472 174.669 21.0383 174.669 18.5602C174.669 16.0821 176.675 14.0732 179.15 14.0732C181.624 14.0732 183.63 16.0821 183.63 18.5602C183.63 21.0383 181.624 23.0472 179.15 23.0472Z" fill="#283489"/>
<path d="M126.292 181.798C123.818 181.798 121.812 179.789 121.812 177.311C121.812 174.833 123.818 172.824 126.292 172.824C128.767 172.824 130.773 174.833 130.773 177.311C130.773 179.789 128.767 181.798 126.292 181.798Z" fill="#283489"/>
<path d="M126.292 128.865C123.818 128.865 121.812 126.856 121.812 124.378C121.812 121.9 123.818 119.891 126.292 119.891C128.767 119.891 130.773 121.9 130.773 124.378C130.773 126.856 128.767 128.865 126.292 128.865Z" fill="#283489"/>
<path d="M126.292 75.9801C123.818 75.9801 121.812 73.9712 121.812 71.4931C121.812 69.015 123.818 67.0061 126.292 67.0061C128.767 67.0061 130.773 69.015 130.773 71.4931C130.773 73.9712 128.767 75.9801 126.292 75.9801Z" fill="#283489"/>
<path d="M126.292 23.0472C123.818 23.0472 121.812 21.0383 121.812 18.5602C121.812 16.0821 123.818 14.0732 126.292 14.0732C128.767 14.0732 130.773 16.0821 130.773 18.5602C130.773 21.0383 128.767 23.0472 126.292 23.0472Z" fill="#283489"/>
<path d="M73.4823 181.798C71.0077 181.798 69.0017 179.789 69.0017 177.311C69.0017 174.833 71.0077 172.824 73.4823 172.824C75.9569 172.824 77.963 174.833 77.963 177.311C77.963 179.789 75.9569 181.798 73.4823 181.798Z" fill="#283489"/>
<path d="M73.4823 128.865C71.0077 128.865 69.0017 126.856 69.0017 124.378C69.0017 121.9 71.0077 119.891 73.4823 119.891C75.9569 119.891 77.963 121.9 77.963 124.378C77.963 126.856 75.9569 128.865 73.4823 128.865Z" fill="#283489"/>
<path d="M73.4823 75.9801C71.0077 75.9801 69.0017 73.9712 69.0017 71.4931C69.0017 69.015 71.0077 67.0061 73.4823 67.0061C75.9569 67.0061 77.963 69.015 77.963 71.4931C77.963 73.9712 75.9569 75.9801 73.4823 75.9801Z" fill="#283489"/>
<path d="M73.4823 23.0472C71.0077 23.0472 69.0017 21.0383 69.0017 18.5602C69.0017 16.0821 71.0077 14.0732 73.4823 14.0732C75.9569 14.0732 77.963 16.0821 77.963 18.5602C77.963 21.0383 75.9569 23.0472 73.4823 23.0472Z" fill="#283489"/>
<path d="M20.6246 181.798C18.15 181.798 16.144 179.789 16.144 177.311C16.144 174.833 18.15 172.824 20.6246 172.824C23.0992 172.824 25.1052 174.833 25.1052 177.311C25.1052 179.789 23.0992 181.798 20.6246 181.798Z" fill="#283489"/>
<path d="M20.6246 128.865C18.15 128.865 16.144 126.856 16.144 124.378C16.144 121.9 18.15 119.891 20.6246 119.891C23.0992 119.891 25.1052 121.9 25.1052 124.378C25.1052 126.856 23.0992 128.865 20.6246 128.865Z" fill="#283489"/>
<path d="M20.6246 75.9801C18.15 75.9801 16.144 73.9712 16.144 71.4931C16.144 69.015 18.15 67.0061 20.6246 67.0061C23.0992 67.0061 25.1052 69.015 25.1052 71.4931C25.1052 73.9712 23.0992 75.9801 20.6246 75.9801Z" fill="#283489"/>
<path d="M20.6246 23.0472C18.15 23.0472 16.144 21.0383 16.144 18.5602C16.144 16.0821 18.15 14.0732 20.6246 14.0732C23.0992 14.0732 25.1052 16.0821 25.1052 18.5602C25.1052 21.0383 23.0992 23.0472 20.6246 23.0472Z" fill="#283489"/>
<path d="M231.96 446.462C229.485 446.462 227.479 444.453 227.479 441.975C227.479 439.497 229.485 437.488 231.96 437.488C234.434 437.488 236.44 439.497 236.44 441.975C236.44 444.453 234.434 446.462 231.96 446.462Z" fill="#283489"/>
<path d="M179.15 446.462C176.675 446.462 174.669 444.453 174.669 441.975C174.669 439.497 176.675 437.488 179.15 437.488C181.624 437.488 183.63 439.497 183.63 441.975C183.63 444.453 181.624 446.462 179.15 446.462Z" fill="#283489"/>
<path d="M126.292 446.462C123.818 446.462 121.812 444.453 121.812 441.975C121.812 439.497 123.818 437.488 126.292 437.488C128.767 437.488 130.773 439.497 130.773 441.975C130.773 444.453 128.767 446.462 126.292 446.462Z" fill="#283489"/>
<path d="M73.4823 446.462C71.0077 446.462 69.0017 444.453 69.0017 441.975C69.0017 439.497 71.0077 437.488 73.4823 437.488C75.9569 437.488 77.963 439.497 77.963 441.975C77.963 444.453 75.9569 446.462 73.4823 446.462Z" fill="#283489"/>
<path d="M20.6246 446.462C18.15 446.462 16.144 444.453 16.144 441.975C16.144 439.497 18.15 437.488 20.6246 437.488C23.0992 437.488 25.1052 439.497 25.1052 441.975C25.1052 444.453 23.0992 446.462 20.6246 446.462Z" fill="#283489"/>
<path d="M231.96 393.577C229.485 393.577 227.479 391.568 227.479 389.09C227.479 386.612 229.485 384.603 231.96 384.603C234.434 384.603 236.44 386.612 236.44 389.09C236.44 391.568 234.434 393.577 231.96 393.577Z" fill="#283489"/>
<path d="M231.96 340.644C229.485 340.644 227.479 338.635 227.479 336.157C227.479 333.679 229.485 331.67 231.96 331.67C234.434 331.67 236.44 333.679 236.44 336.157C236.44 338.635 234.434 340.644 231.96 340.644Z" fill="#283489"/>
<path d="M231.96 287.759C229.485 287.759 227.479 285.75 227.479 283.272C227.479 280.794 229.485 278.785 231.96 278.785C234.434 278.785 236.44 280.794 236.44 283.272C236.44 285.75 234.434 287.759 231.96 287.759Z" fill="#283489"/>
<path d="M179.15 393.577C176.675 393.577 174.669 391.568 174.669 389.09C174.669 386.612 176.675 384.603 179.15 384.603C181.624 384.603 183.63 386.612 183.63 389.09C183.63 391.568 181.624 393.577 179.15 393.577Z" fill="#283489"/>
<path d="M179.15 340.644C176.675 340.644 174.669 338.635 174.669 336.157C174.669 333.679 176.675 331.67 179.15 331.67C181.624 331.67 183.63 333.679 183.63 336.157C183.63 338.635 181.624 340.644 179.15 340.644Z" fill="#283489"/>
<path d="M179.15 287.759C176.675 287.759 174.669 285.75 174.669 283.272C174.669 280.794 176.675 278.785 179.15 278.785C181.624 278.785 183.63 280.794 183.63 283.272C183.63 285.75 181.624 287.759 179.15 287.759Z" fill="#283489"/>
<path d="M126.292 393.577C123.818 393.577 121.812 391.568 121.812 389.09C121.812 386.612 123.818 384.603 126.292 384.603C128.767 384.603 130.773 386.612 130.773 389.09C130.773 391.568 128.767 393.577 126.292 393.577Z" fill="#283489"/>
<path d="M126.292 340.644C123.818 340.644 121.812 338.635 121.812 336.157C121.812 333.679 123.818 331.67 126.292 331.67C128.767 331.67 130.773 333.679 130.773 336.157C130.773 338.635 128.767 340.644 126.292 340.644Z" fill="#283489"/>
<path d="M126.292 287.759C123.818 287.759 121.812 285.75 121.812 283.272C121.812 280.794 123.818 278.785 126.292 278.785C128.767 278.785 130.773 280.794 130.773 283.272C130.773 285.75 128.767 287.759 126.292 287.759Z" fill="#283489"/>
<path d="M73.4823 393.577C71.0077 393.577 69.0017 391.568 69.0017 389.09C69.0017 386.612 71.0077 384.603 73.4823 384.603C75.9569 384.603 77.963 386.612 77.963 389.09C77.963 391.568 75.9569 393.577 73.4823 393.577Z" fill="#283489"/>
<path d="M73.4823 340.644C71.0077 340.644 69.0017 338.635 69.0017 336.157C69.0017 333.679 71.0077 331.67 73.4823 331.67C75.9569 331.67 77.963 333.679 77.963 336.157C77.963 338.635 75.9569 340.644 73.4823 340.644Z" fill="#283489"/>
<path d="M73.4823 287.759C71.0077 287.759 69.0017 285.75 69.0017 283.272C69.0017 280.794 71.0077 278.785 73.4823 278.785C75.9569 278.785 77.963 280.794 77.963 283.272C77.963 285.75 75.9569 287.759 73.4823 287.759Z" fill="#283489"/>
<path d="M20.6246 393.577C18.15 393.577 16.144 391.568 16.144 389.09C16.144 386.612 18.15 384.603 20.6246 384.603C23.0992 384.603 25.1052 386.612 25.1052 389.09C25.1052 391.568 23.0992 393.577 20.6246 393.577Z" fill="#283489"/>
<path d="M20.6246 340.644C18.15 340.644 16.144 338.635 16.144 336.157C16.144 333.679 18.15 331.67 20.6246 331.67C23.0992 331.67 25.1052 333.679 25.1052 336.157C25.1052 338.635 23.0992 340.644 20.6246 340.644Z" fill="#283489"/>
<path d="M20.6246 287.759C18.15 287.759 16.144 285.75 16.144 283.272C16.144 280.794 18.15 278.785 20.6246 278.785C23.0992 278.785 25.1052 280.794 25.1052 283.272C25.1052 285.75 23.0992 287.759 20.6246 287.759Z" fill="#283489"/>
<path d="M231.96 658.145C229.485 658.145 227.479 656.136 227.479 653.658C227.479 651.18 229.485 649.171 231.96 649.171C234.434 649.171 236.44 651.18 236.44 653.658C236.44 656.136 234.434 658.145 231.96 658.145Z" fill="#283489"/>
<path d="M179.15 658.145C176.675 658.145 174.669 656.136 174.669 653.658C174.669 651.18 176.675 649.171 179.15 649.171C181.624 649.171 183.63 651.18 183.63 653.658C183.63 656.136 181.624 658.145 179.15 658.145Z" fill="#283489"/>
<path d="M126.292 658.145C123.818 658.145 121.812 656.136 121.812 653.658C121.812 651.18 123.818 649.171 126.292 649.171C128.767 649.171 130.773 651.18 130.773 653.658C130.773 656.136 128.767 658.145 126.292 658.145Z" fill="#283489"/>
<path d="M73.4823 658.145C71.0077 658.145 69.0017 656.136 69.0017 653.658C69.0017 651.18 71.0077 649.171 73.4823 649.171C75.9569 649.171 77.963 651.18 77.963 653.658C77.963 656.136 75.9569 658.145 73.4823 658.145Z" fill="#283489"/>
<path d="M20.6246 658.145C18.15 658.145 16.144 656.136 16.144 653.658C16.144 651.18 18.15 649.171 20.6246 649.171C23.0992 649.171 25.1052 651.18 25.1052 653.658C25.1052 656.136 23.0992 658.145 20.6246 658.145Z" fill="#283489"/>
<path d="M231.96 605.26C229.485 605.26 227.479 603.251 227.479 600.773C227.479 598.295 229.485 596.286 231.96 596.286C234.434 596.286 236.44 598.295 236.44 600.773C236.44 603.251 234.434 605.26 231.96 605.26Z" fill="#283489"/>
<path d="M231.96 552.327C229.485 552.327 227.479 550.318 227.479 547.84C227.479 545.362 229.485 543.353 231.96 543.353C234.434 543.353 236.44 545.362 236.44 547.84C236.44 550.318 234.434 552.327 231.96 552.327Z" fill="#283489"/>
<path d="M231.96 499.442C229.485 499.442 227.479 497.434 227.479 494.955C227.479 492.477 229.485 490.469 231.96 490.469C234.434 490.469 236.44 492.477 236.44 494.955C236.44 497.434 234.434 499.442 231.96 499.442Z" fill="#283489"/>
<path d="M179.15 605.26C176.675 605.26 174.669 603.251 174.669 600.773C174.669 598.295 176.675 596.286 179.15 596.286C181.624 596.286 183.63 598.295 183.63 600.773C183.63 603.251 181.624 605.26 179.15 605.26Z" fill="#283489"/>
<path d="M179.15 552.327C176.675 552.327 174.669 550.318 174.669 547.84C174.669 545.362 176.675 543.353 179.15 543.353C181.624 543.353 183.63 545.362 183.63 547.84C183.63 550.318 181.624 552.327 179.15 552.327Z" fill="#283489"/>
<path d="M179.15 499.442C176.675 499.442 174.669 497.434 174.669 494.955C174.669 492.477 176.675 490.469 179.15 490.469C181.624 490.469 183.63 492.477 183.63 494.955C183.63 497.434 181.624 499.442 179.15 499.442Z" fill="#283489"/>
<path d="M126.292 605.26C123.818 605.26 121.812 603.251 121.812 600.773C121.812 598.295 123.818 596.286 126.292 596.286C128.767 596.286 130.773 598.295 130.773 600.773C130.773 603.251 128.767 605.26 126.292 605.26Z" fill="#283489"/>
<path d="M126.292 552.327C123.818 552.327 121.812 550.318 121.812 547.84C121.812 545.362 123.818 543.353 126.292 543.353C128.767 543.353 130.773 545.362 130.773 547.84C130.773 550.318 128.767 552.327 126.292 552.327Z" fill="#283489"/>
<path d="M126.292 499.442C123.818 499.442 121.812 497.434 121.812 494.955C121.812 492.477 123.818 490.469 126.292 490.469C128.767 490.469 130.773 492.477 130.773 494.955C130.773 497.434 128.767 499.442 126.292 499.442Z" fill="#283489"/>
<path d="M73.4823 605.26C71.0077 605.26 69.0017 603.251 69.0017 600.773C69.0017 598.295 71.0077 596.286 73.4823 596.286C75.9569 596.286 77.963 598.295 77.963 600.773C77.963 603.251 75.9569 605.26 73.4823 605.26Z" fill="#283489"/>
<path d="M73.4823 552.327C71.0077 552.327 69.0017 550.318 69.0017 547.84C69.0017 545.362 71.0077 543.353 73.4823 543.353C75.9569 543.353 77.963 545.362 77.963 547.84C77.963 550.318 75.9569 552.327 73.4823 552.327Z" fill="#283489"/>
<path d="M73.4823 499.442C71.0077 499.442 69.0017 497.434 69.0017 494.955C69.0017 492.477 71.0077 490.469 73.4823 490.469C75.9569 490.469 77.963 492.477 77.963 494.955C77.963 497.434 75.9569 499.442 73.4823 499.442Z" fill="#283489"/>
<path d="M20.6246 605.26C18.15 605.26 16.144 603.251 16.144 600.773C16.144 598.295 18.15 596.286 20.6246 596.286C23.0992 596.286 25.1052 598.295 25.1052 600.773C25.1052 603.251 23.0992 605.26 20.6246 605.26Z" fill="#283489"/>
<path d="M20.6246 552.327C18.15 552.327 16.144 550.318 16.144 547.84C16.144 545.362 18.15 543.353 20.6246 543.353C23.0992 543.353 25.1052 545.362 25.1052 547.84C25.1052 550.318 23.0992 552.327 20.6246 552.327Z" fill="#283489"/>
<path d="M20.6246 499.442C18.15 499.442 16.144 497.434 16.144 494.955C16.144 492.477 18.15 490.469 20.6246 490.469C23.0992 490.469 25.1052 492.477 25.1052 494.955C25.1052 497.434 23.0992 499.442 20.6246 499.442Z" fill="#283489"/>
</g>
</g>
<g opacity="0.3" clip-path="url(#clip1_88_6)">
<path d="M1307.69 332.501C1307.05 332.493 1306.42 332.319 1305.87 331.993C1305.32 331.668 1304.86 331.203 1304.54 330.645L1277.24 286.842C1274.37 282.127 1270.22 278.331 1265.28 275.896C1260.34 273.461 1254.82 272.488 1249.35 273.091C1240.11 274.019 1231.91 279.66 1226.94 287.593L1209.94 315.011C1206.63 320.359 1202.01 324.77 1196.52 327.828C1191.03 330.887 1184.86 332.492 1178.59 332.492C1172.32 332.492 1166.15 330.887 1160.66 327.828C1155.18 324.77 1150.56 320.359 1147.24 315.011L1130.24 287.667C1125.36 279.744 1117.16 274.075 1107.92 273.091C1102.43 272.487 1096.88 273.457 1091.91 275.891C1086.95 278.325 1082.77 282.121 1079.87 286.842L1062.32 315.011C1058.99 320.343 1054.38 324.739 1048.9 327.786C1043.42 330.833 1037.26 332.432 1031 332.432C1024.74 332.432 1018.58 330.833 1013.1 327.786C1007.62 324.739 1003.01 320.343 999.684 315.011L982.689 287.667C977.72 279.744 969.601 274.075 960.355 273.091C954.865 272.479 949.314 273.447 944.349 275.881C939.385 278.316 935.211 282.117 932.313 286.842L914.764 315.011C911.464 320.375 906.847 324.798 901.355 327.854C895.864 330.91 889.684 332.497 883.406 332.463C878.398 332.458 873.441 331.455 868.822 329.513C862.142 326.579 856.467 321.74 852.501 315.595L852.057 314.992V314.918L834.61 286.823C834.308 286.351 833.981 285.896 833.631 285.459C830.663 281.049 826.494 277.59 821.623 275.494C820.939 275.173 820.236 274.894 819.517 274.659C818.451 274.22 817.343 273.89 816.211 273.676C815.181 273.379 814.121 273.202 813.052 273.147C812.961 273.089 812.854 273.062 812.747 273.073C810.671 272.85 808.578 272.85 806.503 273.073C805.881 273.132 805.264 273.234 804.656 273.379C803.865 273.48 803.085 273.657 802.328 273.908C801.375 274.071 800.445 274.348 799.557 274.733C798.618 275.047 797.712 275.451 796.851 275.94C795.528 276.546 794.269 277.282 793.092 278.139C790.682 279.716 788.571 281.711 786.857 284.03C786.359 284.572 785.905 285.152 785.499 285.765C785.223 286.098 784.973 286.452 784.751 286.823L784.298 287.575L767.008 315.298C763.66 320.58 759.034 324.923 753.562 327.922C748.09 330.921 741.951 332.477 735.718 332.447C729.485 332.416 723.361 330.799 717.919 327.747C712.477 324.695 707.893 320.306 704.597 314.992L687.601 287.649C682.715 279.781 674.587 274.112 665.351 273.128C659.86 272.516 654.309 273.484 649.345 275.918C644.38 278.353 640.206 282.154 637.309 286.879L619.759 315.048C616.441 320.396 611.821 324.807 606.335 327.866C600.85 330.924 594.68 332.529 588.406 332.529C582.132 332.529 575.962 330.924 570.477 327.866C564.991 324.807 560.371 320.396 557.053 315.048L540.058 287.705C535.171 279.781 527.053 274.112 517.733 273.128C512.252 272.524 506.713 273.495 501.76 275.929C496.807 278.364 492.644 282.161 489.756 286.879L472.206 315.048C468.887 320.396 464.268 324.807 458.782 327.866C453.297 330.924 447.127 332.529 440.853 332.529C434.579 332.529 428.409 330.924 422.924 327.866C417.438 324.807 412.818 320.396 409.5 315.048L392.514 287.705C387.544 279.781 379.426 274.112 370.18 273.128C364.688 272.524 359.139 273.494 354.174 275.928C349.21 278.362 345.033 282.159 342.129 286.879L314.909 330.682C314.582 331.251 314.11 331.723 313.542 332.049C312.974 332.375 312.33 332.544 311.676 332.538C310.68 332.533 309.727 332.133 309.023 331.426C308.319 330.719 307.921 329.761 307.917 328.761C307.942 328.041 308.149 327.339 308.517 326.72L335.737 282.833C339.059 277.502 343.676 273.106 349.154 270.058C354.632 267.011 360.791 265.412 367.053 265.412C373.315 265.412 379.474 267.011 384.952 270.058C390.43 273.106 395.047 277.502 398.37 282.833L415.919 311.012C418.541 315.289 422.21 318.82 426.575 321.269C430.94 323.719 435.857 325.005 440.858 325.005C445.858 325.005 450.775 323.719 455.14 321.269C459.505 318.82 463.174 315.289 465.796 311.012L483.345 282.833C486.664 277.485 491.284 273.074 496.769 270.016C502.255 266.958 508.425 265.353 514.699 265.353C520.972 265.353 527.143 266.958 532.628 270.016C538.114 273.074 542.733 277.485 546.052 282.833L563.601 311.012C566.224 315.289 569.892 318.82 574.257 321.269C578.623 323.719 583.54 325.005 588.54 325.005C593.54 325.005 598.457 323.719 602.823 321.269C607.188 318.82 610.856 315.289 613.479 311.012L631.028 282.833C634.35 277.502 638.967 273.106 644.445 270.058C649.923 267.011 656.082 265.412 662.344 265.412C668.606 265.412 674.765 267.011 680.243 270.058C685.721 273.106 690.338 277.502 693.661 282.833L711.21 311.012C713.815 315.251 717.449 318.756 721.771 321.2C726.094 323.643 730.962 324.944 735.922 324.981C740.881 325.018 745.769 323.79 750.126 321.412C754.484 319.033 758.17 315.583 760.838 311.383L761.059 311.012L778.609 282.833C780.294 280.167 782.288 277.709 784.548 275.513C785.664 274.426 786.872 273.438 788.159 272.562C790.632 270.746 793.307 269.227 796.13 268.034C801.943 265.724 808.241 264.925 814.442 265.71C820.644 266.495 826.548 268.839 831.608 272.525C832.531 273.202 833.455 273.963 834.314 274.715C834.914 275.318 835.598 275.921 836.161 276.524C837.986 278.453 839.622 280.554 841.047 282.796L858.597 310.891V310.975C858.654 311.108 858.728 311.233 858.819 311.346C861.486 315.546 865.172 318.996 869.53 321.375C873.888 323.753 878.775 324.981 883.734 324.944C888.694 324.907 893.563 323.606 897.885 321.163C902.207 318.719 905.841 315.214 908.446 310.975L925.996 282.796C929.318 277.465 933.935 273.069 939.413 270.021C944.891 266.974 951.05 265.375 957.312 265.375C963.574 265.375 969.733 266.974 975.211 270.021C980.689 273.069 985.306 277.465 988.628 282.796L1006.18 310.975C1008.8 315.249 1012.47 318.778 1016.84 321.226C1021.2 323.674 1026.12 324.959 1031.12 324.959C1036.12 324.959 1041.03 323.674 1045.4 321.226C1049.76 318.778 1053.43 315.249 1056.05 310.975L1073.6 282.796C1076.93 277.465 1081.54 273.069 1087.02 270.021C1092.5 266.974 1098.66 265.375 1104.92 265.375C1111.18 265.375 1117.34 266.974 1122.82 270.021C1128.3 273.069 1132.91 277.465 1136.24 282.796L1153.79 310.975C1156.41 315.252 1160.08 318.783 1164.44 321.232C1168.81 323.682 1173.72 324.967 1178.72 324.967C1183.73 324.967 1188.64 323.682 1193.01 321.232C1197.37 318.783 1201.04 315.252 1203.66 310.975L1221.21 282.796C1224.53 277.448 1229.15 273.037 1234.64 269.979C1240.12 266.92 1246.29 265.316 1252.57 265.316C1258.84 265.316 1265.01 266.92 1270.5 269.979C1275.98 273.037 1280.6 277.448 1283.92 282.796L1311.14 326.683C1311.51 327.275 1311.72 327.96 1311.73 328.661C1311.74 329.362 1311.55 330.052 1311.19 330.655C1310.84 331.257 1310.32 331.749 1309.7 332.074C1309.09 332.4 1308.39 332.548 1307.69 332.501Z" fill="#FFB666"/>
<path d="M1309.35 244.885C1308.7 244.867 1308.06 244.689 1307.5 244.365C1306.93 244.041 1306.46 243.582 1306.11 243.029L1278.89 199.152C1276.01 194.454 1271.85 190.672 1266.92 188.239C1261.98 185.807 1256.47 184.823 1251 185.401C1241.68 186.329 1233.56 191.97 1228.59 199.977L1211.52 227.321C1208.22 232.68 1203.61 237.104 1198.13 240.172C1192.65 243.239 1186.48 244.85 1180.21 244.85C1173.93 244.85 1167.76 243.239 1162.28 240.172C1156.8 237.104 1152.19 232.68 1148.89 227.321L1131.9 199.977C1126.94 192.044 1118.82 186.384 1109.57 185.401C1104.08 184.805 1098.53 185.78 1093.57 188.213C1088.61 190.646 1084.43 194.438 1081.52 199.152L1063.97 227.321C1060.65 232.671 1056.03 237.084 1050.55 240.144C1045.06 243.203 1038.89 244.809 1032.61 244.809C1026.34 244.809 1020.17 243.203 1014.68 240.144C1009.19 237.084 1004.57 232.671 1001.25 227.321L984.269 199.977C979.383 192.044 971.254 186.384 961.935 185.401C956.457 184.814 950.925 185.793 945.977 188.226C941.029 190.659 936.866 194.446 933.967 199.152L916.417 227.321C913.109 232.693 908.485 237.125 902.988 240.193C897.49 243.261 891.302 244.864 885.013 244.848C878.814 244.816 872.721 243.232 867.286 240.237C861.851 237.243 857.245 232.935 853.886 227.701C853.812 227.543 853.738 227.469 853.665 227.321L836.217 199.152C832.717 193.446 827.348 189.145 821.032 186.988C820.02 186.538 818.96 186.208 817.873 186.004C817.716 186.004 817.568 185.93 817.347 185.93C816.437 185.702 815.51 185.549 814.576 185.475C814.545 185.447 814.508 185.426 814.468 185.413C814.428 185.4 814.386 185.396 814.345 185.401C811.662 185.122 808.954 185.225 806.3 185.707C805.677 185.793 805.06 185.917 804.452 186.078C803.763 186.205 803.084 186.381 802.42 186.607C801.949 186.729 801.493 186.907 801.063 187.136C800.109 187.373 799.196 187.755 798.356 188.268C793.371 190.661 789.172 194.437 786.257 199.152L768.809 227.321L768.587 227.701C764.669 233.976 758.917 238.882 752.118 241.749V241.823C743.991 245.343 734.875 245.816 726.43 243.154C717.985 240.493 710.771 234.874 706.102 227.321L689.107 199.977C684.221 192.044 676.102 186.384 666.773 185.401C661.295 184.814 655.764 185.793 650.816 188.226C645.867 190.659 641.704 194.446 638.805 199.152L621.256 227.321C617.947 232.682 613.33 237.105 607.844 240.173C602.357 243.241 596.182 244.851 589.902 244.851C583.623 244.851 577.448 243.241 571.961 240.173C566.474 237.105 561.858 232.682 558.549 227.321L541.554 199.977C536.668 192.044 528.475 186.384 519.229 185.401C513.74 184.812 508.196 185.79 503.234 188.222C498.272 190.654 494.094 194.442 491.178 199.152L473.629 227.321C470.327 232.68 465.718 237.104 460.237 240.172C454.756 243.239 448.586 244.85 442.312 244.85C436.038 244.85 429.868 243.239 424.387 240.172C418.907 237.104 414.297 232.68 410.996 227.321L394.01 199.977C389.041 192.044 380.922 186.384 371.676 185.401C366.186 184.805 360.64 185.78 355.677 188.213C350.714 190.646 346.536 194.438 343.625 199.152L316.414 243.029C316.069 243.584 315.592 244.044 315.026 244.367C314.46 244.691 313.823 244.869 313.172 244.885C312.667 244.888 312.166 244.791 311.699 244.598C311.231 244.405 310.807 244.121 310.45 243.762C310.093 243.403 309.811 242.976 309.621 242.506C309.43 242.036 309.334 241.532 309.339 241.025C309.356 240.329 309.564 239.652 309.939 239.067L337.455 195.18C340.777 189.847 345.394 185.449 350.873 182.4C356.352 179.351 362.513 177.752 368.776 177.752C375.039 177.752 381.2 179.351 386.679 182.4C392.157 185.449 396.775 189.847 400.097 195.18L417.646 223.359C420.285 227.614 423.959 231.124 428.322 233.558C432.686 235.991 437.594 237.268 442.585 237.268C447.575 237.268 452.484 235.991 456.847 233.558C461.21 231.124 464.885 227.614 467.523 223.359L485.073 195.18C488.395 189.849 493.012 185.453 498.49 182.405C503.968 179.358 510.127 177.759 516.389 177.759C522.651 177.759 528.81 179.358 534.288 182.405C539.766 185.453 544.383 189.849 547.705 195.18L565.255 223.359C567.893 227.614 571.568 231.124 575.931 233.558C580.294 235.991 585.203 237.268 590.193 237.268C595.184 237.268 600.092 235.991 604.456 233.558C608.819 231.124 612.493 227.614 615.132 223.359L632.681 195.18C636 189.832 640.62 185.421 646.105 182.363C651.591 179.305 657.761 177.7 664.034 177.7C670.308 177.7 676.478 179.305 681.964 182.363C687.449 185.421 692.069 189.832 695.388 195.18L712.937 223.359C715.559 227.577 719.198 231.062 723.518 233.49C727.839 235.918 732.699 237.21 737.649 237.247C742.6 237.284 747.479 236.064 751.835 233.701C756.19 231.338 759.881 227.908 762.565 223.73L762.787 223.359L780.336 195.18C782.002 192.497 783.998 190.034 786.275 187.85C788.521 185.736 791 183.887 793.664 182.339C799.176 179.319 805.355 177.736 811.634 177.736C817.913 177.736 824.091 179.319 829.603 182.339C832.268 183.887 834.747 185.736 836.993 187.85C839.27 190.034 841.265 192.497 842.932 195.18L860.481 223.359C860.555 223.507 860.629 223.581 860.703 223.73C863.386 227.908 867.077 231.338 871.433 233.701C875.789 236.064 880.668 237.284 885.618 237.247C890.568 237.21 895.429 235.918 899.749 233.49C904.069 231.062 907.709 227.577 910.33 223.359L927.88 195.18C931.199 189.832 935.818 185.421 941.304 182.363C946.789 179.305 952.96 177.7 959.233 177.7C965.507 177.7 971.677 179.305 977.162 182.363C982.648 185.421 987.268 189.832 990.586 195.18L1008.14 223.359C1010.77 227.614 1014.45 231.124 1018.81 233.558C1023.18 235.991 1028.08 237.268 1033.07 237.268C1038.06 237.268 1042.97 235.991 1047.34 233.558C1051.7 231.124 1055.37 227.614 1058.01 223.359L1075.56 195.18C1078.88 189.847 1083.5 185.449 1088.98 182.4C1094.46 179.351 1100.62 177.752 1106.88 177.752C1113.15 177.752 1119.31 179.351 1124.79 182.4C1130.26 185.449 1134.88 189.847 1138.2 195.18L1155.75 223.359C1158.39 227.612 1162.07 231.12 1166.43 233.552C1170.79 235.984 1175.7 237.26 1180.69 237.26C1185.68 237.26 1190.59 235.984 1194.95 233.552C1199.32 231.12 1202.99 227.612 1205.63 223.359L1223.18 195.18C1226.5 189.832 1231.12 185.421 1236.6 182.363C1242.09 179.305 1248.26 177.7 1254.53 177.7C1260.81 177.7 1266.98 179.305 1272.46 182.363C1277.95 185.421 1282.57 189.832 1285.89 195.18L1313.11 239.067C1313.5 239.683 1313.71 240.4 1313.71 241.133C1313.71 241.865 1313.49 242.581 1313.1 243.196C1312.7 243.81 1312.14 244.296 1311.47 244.596C1310.81 244.895 1310.07 244.996 1309.35 244.885Z" fill="#FFB666"/>
<path d="M1308.53 422.76C1307.88 422.753 1307.26 422.578 1306.7 422.253C1306.15 421.928 1305.69 421.463 1305.37 420.905L1278.07 377.027C1275.18 372.336 1271.02 368.559 1266.09 366.127C1261.16 363.695 1255.64 362.707 1250.18 363.277C1245.59 363.84 1241.18 365.447 1237.3 367.974C1233.42 370.501 1230.16 373.882 1227.77 377.862L1210.7 405.206C1207.4 410.565 1202.79 414.989 1197.31 418.057C1191.83 421.124 1185.66 422.735 1179.39 422.735C1173.11 422.735 1166.94 421.124 1161.46 418.057C1155.98 414.989 1151.37 410.565 1148.07 405.206L1131.07 377.862C1126.11 369.929 1117.99 364.269 1108.74 363.36C1103.26 362.759 1097.72 363.723 1092.76 366.143C1087.8 368.562 1083.62 372.338 1080.7 377.037L1063.15 405.206C1059.85 410.565 1055.24 414.989 1049.76 418.057C1044.28 421.124 1038.11 422.735 1031.83 422.735C1025.56 422.735 1019.39 421.124 1013.91 418.057C1008.43 414.989 1003.82 410.565 1000.52 405.206L983.548 377.862C978.588 369.929 970.469 364.269 961.224 363.36C955.743 362.759 950.205 363.727 945.248 366.152C940.291 368.577 936.118 372.36 933.209 377.064L915.66 405.234C912.358 410.6 907.744 415.028 902.257 418.096C896.769 421.164 890.591 422.77 884.311 422.76C879.283 422.777 874.309 421.721 869.718 419.661C862.911 416.78 857.142 411.879 853.184 405.614L852.953 405.234L835.515 377.064C832.667 372.345 828.488 368.583 823.507 366.255C822.527 365.65 821.462 365.193 820.348 364.9C819.385 364.481 818.378 364.17 817.347 363.973C817.116 363.898 816.82 363.898 816.515 363.824C815.577 363.597 814.623 363.445 813.661 363.369C811.384 363.134 809.088 363.159 806.817 363.444C806.669 363.444 806.586 363.444 806.512 363.518C805.465 363.604 804.43 363.806 803.427 364.121C802.435 364.284 801.473 364.597 800.573 365.049C799.58 365.342 798.622 365.746 797.719 366.255C796.396 366.857 795.137 367.591 793.96 368.445C790.595 370.673 787.757 373.615 785.647 377.064L768.135 405.234L767.904 405.53C764.013 411.848 758.255 416.789 751.435 419.661V419.736C743.318 423.25 734.214 423.718 725.782 421.057C717.35 418.395 710.15 412.78 705.493 405.234L688.507 377.862C683.537 369.929 675.419 364.269 666.173 363.36C660.69 362.75 655.148 363.71 650.186 366.131C645.224 368.551 641.044 372.332 638.131 377.037L620.581 405.206C617.273 410.567 612.656 414.991 607.169 418.058C601.683 421.126 595.507 422.736 589.228 422.736C582.949 422.736 576.773 421.126 571.287 418.058C565.8 414.991 561.184 410.567 557.875 405.206L540.907 377.862C536.021 369.929 527.819 364.269 518.573 363.36C513.093 362.767 507.556 363.735 502.597 366.153C497.638 368.572 493.457 372.343 490.531 377.037L472.982 405.206C469.681 410.565 465.071 414.989 459.591 418.057C454.11 421.124 447.94 422.735 441.666 422.735C435.392 422.735 429.222 421.124 423.741 418.057C418.26 414.989 413.65 410.565 410.349 405.206L393.382 377.862C388.422 369.929 380.303 364.269 371.048 363.36C365.562 362.76 360.019 363.728 355.057 366.152C350.094 368.576 345.914 372.359 342.997 377.064L315.777 420.942C315.347 421.655 314.695 422.206 313.922 422.509C313.149 422.812 312.298 422.85 311.501 422.618C310.704 422.385 310.005 421.894 309.514 421.222C309.023 420.55 308.767 419.734 308.785 418.901C308.771 418.211 308.954 417.532 309.311 416.943L336.605 373.056C339.928 367.724 344.545 363.328 350.023 360.281C355.501 357.234 361.66 355.635 367.921 355.635C374.183 355.635 380.342 357.234 385.82 360.281C391.298 363.328 395.915 367.724 399.238 373.056L416.787 401.225C419.424 405.483 423.098 408.995 427.461 411.43C431.825 413.865 436.734 415.143 441.726 415.143C446.717 415.143 451.627 413.865 455.99 411.43C460.354 408.995 464.027 405.483 466.664 401.225L484.214 373.056C487.532 367.708 492.152 363.297 497.638 360.239C503.123 357.18 509.293 355.575 515.567 355.575C521.841 355.575 528.011 357.18 533.496 360.239C538.982 363.297 543.602 367.708 546.92 373.056L564.47 401.225C567.099 405.477 570.764 408.985 575.119 411.418C579.474 413.851 584.374 415.127 589.357 415.127C594.34 415.127 599.241 413.851 603.596 411.418C607.951 408.985 611.616 405.477 614.245 401.225L631.794 373.056C635.121 367.717 639.744 363.314 645.229 360.262C650.714 357.21 656.882 355.609 663.152 355.609C669.423 355.609 675.59 357.21 681.076 360.262C686.561 363.314 691.184 367.717 694.51 373.056L712.06 401.225C714.679 405.446 718.317 408.934 722.637 411.364C726.957 413.794 731.818 415.088 736.769 415.126C741.721 415.164 746.601 413.945 750.957 411.581C755.313 409.217 759.004 405.786 761.687 401.606L761.918 401.225L779.468 373.056C780.299 371.701 781.204 370.412 782.174 369.131C783.192 367.941 784.271 366.804 785.407 365.726C788.737 362.453 792.706 359.907 797.063 358.248C798.517 357.669 800 357.168 801.506 356.745C803.424 356.25 805.385 355.94 807.362 355.817C808.486 355.669 809.618 355.595 810.752 355.594C817.025 355.569 823.201 357.159 828.689 360.213C834.177 363.266 838.794 367.682 842.1 373.038L859.65 401.207V401.29L859.798 401.513C862.468 405.705 866.152 409.15 870.505 411.527C874.859 413.903 879.741 415.133 884.695 415.103C889.65 415.072 894.516 413.782 898.841 411.352C903.165 408.922 906.806 405.432 909.425 401.207L926.975 373.038C930.293 367.689 934.913 363.278 940.399 360.22C945.884 357.162 952.054 355.557 958.328 355.557C964.602 355.557 970.772 357.162 976.257 360.22C981.743 363.278 986.363 367.689 989.681 373.038L1007.23 401.207C1009.87 405.464 1013.54 408.976 1017.9 411.411C1022.27 413.846 1027.18 415.124 1032.17 415.124C1037.16 415.124 1042.07 413.846 1046.43 411.411C1050.8 408.976 1054.47 405.464 1057.11 401.207L1074.66 373.038C1077.98 367.706 1082.6 363.31 1088.07 360.262C1093.55 357.215 1099.71 355.616 1105.97 355.616C1112.24 355.616 1118.39 357.215 1123.87 360.262C1129.35 363.31 1133.97 367.706 1137.29 373.038L1154.84 401.207C1157.48 405.464 1161.15 408.976 1165.51 411.411C1169.88 413.846 1174.79 415.124 1179.78 415.124C1184.77 415.124 1189.68 413.846 1194.04 411.411C1198.41 408.976 1202.08 405.464 1204.72 401.207L1222.27 373.038C1225.58 367.689 1230.2 363.278 1235.69 360.22C1241.17 357.162 1247.35 355.557 1253.62 355.557C1259.89 355.557 1266.06 357.162 1271.55 360.22C1277.03 363.278 1281.65 367.689 1284.97 373.038L1312.19 416.924C1312.58 417.534 1312.79 418.243 1312.79 418.966C1312.79 419.69 1312.59 420.399 1312.2 421.011C1311.82 421.623 1311.27 422.113 1310.62 422.422C1309.97 422.732 1309.24 422.849 1308.53 422.76Z" fill="#FFB666"/>
<path d="M1306.95 510.376C1306.3 510.381 1305.67 510.224 1305.11 509.919C1304.54 509.614 1304.06 509.172 1303.71 508.632L1276.49 464.755C1273.6 460.063 1269.45 456.286 1264.51 453.854C1259.58 451.422 1254.06 450.435 1248.6 451.004C1239.27 451.932 1231.05 457.573 1226.12 465.506L1209.12 492.914C1205.8 498.263 1201.18 502.674 1195.7 505.732C1190.21 508.79 1184.04 510.395 1177.77 510.395C1171.49 510.395 1165.32 508.79 1159.84 505.732C1154.35 502.674 1149.73 498.263 1146.42 492.914L1129.42 465.571C1124.53 457.638 1116.34 451.978 1107.09 450.995C1101.6 450.415 1096.06 451.397 1091.1 453.829C1086.14 456.26 1081.97 460.043 1079.04 464.745L1061.49 492.914C1058.17 498.246 1053.56 502.642 1048.08 505.69C1042.6 508.737 1036.44 510.336 1030.18 510.336C1023.92 510.336 1017.76 508.737 1012.28 505.69C1006.8 502.642 1002.18 498.246 998.862 492.914L981.867 465.571C976.907 457.638 968.788 451.978 959.533 450.995C954.045 450.408 948.503 451.386 943.543 453.818C938.583 456.25 934.406 460.037 931.491 464.745L913.942 492.914C910.626 498.25 906.014 502.652 900.539 505.705C895.065 508.759 888.908 510.365 882.646 510.373C876.384 510.38 870.223 508.789 864.741 505.748C859.26 502.707 854.638 498.316 851.309 492.989V492.914L834.379 465.58C834.223 465.292 834.047 465.017 833.852 464.755C831.009 460.049 826.849 456.289 821.891 453.945C820.91 453.337 819.846 452.877 818.732 452.581C817.769 452.161 816.762 451.849 815.73 451.653C815.319 451.501 814.884 451.426 814.446 451.431C813.762 451.221 813.055 451.093 812.34 451.05C812.254 450.991 812.149 450.965 812.045 450.976C808.772 450.684 805.475 450.887 802.263 451.579C801.363 451.78 800.482 452.06 799.631 452.414C799.539 452.404 799.446 452.411 799.357 452.437C799.269 452.462 799.186 452.505 799.114 452.563C798.067 452.881 797.058 453.31 796.102 453.843C794.78 454.445 793.521 455.179 792.343 456.033C789.931 457.61 787.817 459.605 786.099 461.925C785.604 462.469 785.153 463.052 784.751 463.669C784.472 464.002 784.219 464.355 783.993 464.727L783.541 465.478L766.472 492.97C763.143 498.298 758.521 502.688 753.039 505.729C747.558 508.77 741.397 510.362 735.135 510.354C728.873 510.347 722.716 508.741 717.241 505.687C711.767 502.633 707.155 498.232 703.839 492.896L686.853 465.552C681.884 457.619 673.765 451.96 664.519 450.976C659.03 450.389 653.487 451.368 648.526 453.8C643.564 456.232 639.385 460.019 636.468 464.727L618.919 492.896C615.594 498.212 610.981 502.595 605.511 505.633C600.042 508.671 593.894 510.265 587.644 510.267C581.394 510.269 575.246 508.678 569.774 505.643C564.303 502.608 559.688 498.229 556.36 492.914L539.365 465.571C534.405 457.638 526.276 451.978 517.031 450.995C511.532 450.389 505.974 451.359 501.002 453.795C496.029 456.23 491.845 460.03 488.933 464.755L471.384 492.924C468.065 498.272 463.445 502.683 457.96 505.741C452.475 508.8 446.304 510.404 440.031 510.404C433.757 510.404 427.587 508.8 422.101 505.741C416.616 502.683 411.996 498.272 408.677 492.924L391.682 465.58C386.796 457.647 378.594 451.987 369.348 451.004C363.86 450.417 358.318 451.396 353.358 453.828C348.399 456.26 344.222 460.047 341.306 464.755L314.086 508.632C313.736 509.171 313.256 509.613 312.691 509.918C312.126 510.223 311.495 510.38 310.854 510.376C309.856 510.371 308.902 509.971 308.197 509.262C307.493 508.552 307.097 507.592 307.094 506.591C307.108 505.894 307.316 505.216 307.695 504.633L334.915 460.746C338.233 455.398 342.853 450.987 348.339 447.929C353.824 444.87 359.994 443.266 366.268 443.266C372.542 443.266 378.712 444.87 384.197 447.929C389.683 450.987 394.303 455.398 397.621 460.746L415.171 488.925C417.801 493.175 421.467 496.681 425.822 499.112C430.177 501.542 435.076 502.818 440.058 502.818C445.04 502.818 449.94 501.542 454.295 499.112C458.649 496.681 462.315 493.175 464.946 488.925L482.495 460.746C485.814 455.398 490.434 450.987 495.919 447.929C501.405 444.87 507.575 443.266 513.849 443.266C520.122 443.266 526.293 444.87 531.778 447.929C537.264 450.987 541.883 455.398 545.202 460.746L562.751 488.925C565.39 493.18 569.064 496.69 573.428 499.123C577.791 501.557 582.699 502.834 587.69 502.834C592.681 502.834 597.589 501.557 601.952 499.123C606.316 496.69 609.99 493.18 612.629 488.925L630.178 460.746C633.5 455.412 638.117 451.015 643.596 447.966C649.075 444.917 655.236 443.318 661.499 443.318C667.762 443.318 673.923 444.917 679.402 447.966C684.88 451.015 689.498 455.412 692.82 460.746L710.369 488.925C712.991 493.143 716.63 496.628 720.951 499.056C725.271 501.483 730.131 502.776 735.082 502.813C740.032 502.85 744.911 501.63 749.267 499.267C753.622 496.904 757.313 493.474 759.997 489.296L760.228 488.925L777.777 460.746C778.597 459.407 779.501 458.12 780.484 456.896V456.821C781.536 455.615 782.589 454.483 783.716 453.426C790.581 446.924 799.659 443.303 809.094 443.303C818.528 443.303 827.606 446.924 834.471 453.426C836.75 455.604 838.746 458.064 840.41 460.746L857.959 488.925C858.033 489.073 858.107 489.147 858.19 489.296C860.873 493.474 864.563 496.905 868.918 499.268C873.273 501.631 878.151 502.851 883.101 502.814C888.051 502.777 892.911 501.484 897.23 499.056C901.55 496.628 905.188 493.143 907.809 488.925L925.358 460.746C928.681 455.415 933.298 451.018 938.776 447.971C944.254 444.924 950.413 443.325 956.674 443.325C962.936 443.325 969.095 444.924 974.573 447.971C980.051 451.018 984.668 455.415 987.991 460.746L1005.54 488.925C1008.18 493.18 1011.85 496.69 1016.22 499.123C1020.58 501.557 1025.49 502.834 1030.48 502.834C1035.47 502.834 1040.38 501.557 1044.74 499.123C1049.1 496.69 1052.78 493.18 1055.42 488.925L1072.97 460.746C1076.29 455.398 1080.91 450.987 1086.39 447.929C1091.88 444.87 1098.05 443.266 1104.32 443.266C1110.59 443.266 1116.76 444.87 1122.25 447.929C1127.73 450.987 1132.35 455.398 1135.67 460.746L1153.22 488.925C1155.85 493.175 1159.52 496.681 1163.87 499.112C1168.23 501.542 1173.13 502.818 1178.11 502.818C1183.09 502.818 1187.99 501.542 1192.35 499.112C1196.7 496.681 1200.37 493.175 1203 488.925L1220.55 460.746C1223.87 455.398 1228.49 450.987 1233.97 447.929C1239.46 444.87 1245.63 443.266 1251.9 443.266C1258.17 443.266 1264.34 444.87 1269.83 447.929C1275.32 450.987 1279.94 455.398 1283.25 460.746L1310.47 504.633C1310.87 505.224 1311.08 505.916 1311.1 506.627C1311.11 507.338 1310.92 508.037 1310.55 508.642C1310.17 509.247 1309.64 509.732 1309 510.04C1308.36 510.347 1307.65 510.464 1306.95 510.376Z" fill="#FFB666"/>
</g>
<rect opacity="0.5" x="1497.46" y="43.2905" width="18.5443" height="172.694" fill="#FFDAB2"/>
<rect opacity="0.5" x="1497.46" y="254.232" width="18.5443" height="172.694" fill="#FFDAB2"/>
<rect opacity="0.5" x="1497.46" y="465.174" width="18.5443" height="172.694" fill="#FFDAB2"/>
<defs>
<clipPath id="clip0_88_6">
<rect width="236.44" height="679.187" fill="white" transform="matrix(-1 0 0 1 236.44 0.406738)"/>
</clipPath>
<clipPath id="clip1_88_6">
<rect width="1006.03" height="332.639" fill="white" transform="translate(307.141 177.737)"/>
</clipPath>
</defs>
</svg>
