<svg width="402" height="273" viewBox="0 0 402 273" fill="none" xmlns="http://www.w3.org/2000/svg">
<path d="M155.423 24.6639H106.65C104.977 24.6639 103.616 23.2745 103.616 21.5668C103.616 19.8591 104.977 18.4697 106.65 18.4697H155.423C157.096 18.4697 158.457 19.8591 158.457 21.5668C158.457 23.2745 157.096 24.6639 155.423 24.6639Z" fill="#E6E7E8"/>
<path d="M193.485 35.1462H106.65C104.977 35.1462 103.616 33.7568 103.616 32.0491C103.616 30.3414 104.977 28.952 106.65 28.952H193.485C195.158 28.952 196.519 30.3414 196.519 32.0491C196.519 33.7568 195.158 35.1462 193.485 35.1462Z" fill="#E6E7E8"/>
<path d="M193.485 45.5343H106.65C104.977 45.5343 103.616 44.1449 103.616 42.4372C103.616 40.7295 104.977 39.3401 106.65 39.3401H193.485C195.158 39.3401 196.519 40.7295 196.519 42.4372C196.519 44.1449 195.158 45.5343 193.485 45.5343Z" fill="#E6E7E8"/>
<path d="M202.683 99.4429V97.9589C185.899 97.9589 171.243 83.9663 167.346 64.4752L173.67 66.1356C170.611 63.1781 167.521 58.2269 165.605 54.1804C164.472 58.5245 162.358 63.9836 159.904 67.4791L165.887 64.5863C169.866 84.8643 185.152 99.4429 202.683 99.4429Z" fill="#3F3D56"/>
<path d="M196.334 42.6505C196.334 44.2871 195.029 45.6186 193.426 45.6186H155.621C154.017 45.6186 152.713 44.2871 152.713 42.6505C152.713 41.014 154.017 39.6825 155.621 39.6825H193.426C195.029 39.6825 196.334 41.014 196.334 42.6505Z" fill="#335E89"/>
<path d="M26.1029 207.983C25.5274 205.938 24.5418 204.193 23.3685 202.949L19.1055 183.115L9.81329 185.438L15.1382 205.307C14.788 206.988 14.8581 208.995 15.4336 211.041C16.7483 215.713 20.2025 218.817 23.1488 217.972C26.095 217.128 27.4176 212.655 26.1029 207.983H26.1029Z" fill="#FFB6B6"/>
<path d="M24.8174 77.8786C24.8174 77.8786 14.7809 77.5251 8.9647 84.2031C2.30114 92.5109 -2.2537 125.063 1.16563 127.255L10.4298 194.396L23.6404 192.544L20.25 111.985L24.8174 77.8786V77.8786Z" fill="#92AAAA"/>
<path d="M92.5722 191.052L90.1676 272.998H55.6341L54.2382 241.41L48.1021 272.998H11.0895L15.7061 218.697L20.4753 207.278L23.7033 199.539L92.5722 191.052Z" fill="#2F2E41"/>
<path d="M65.1436 64.4933L41.1519 63.0093L33.1546 73.3974C26.2477 74.9068 20.0092 76.8553 15.7061 80.0755C16.7356 111.185 14.4741 151.636 23.7034 159.47L15.5079 218.507C15.5079 218.507 18.8129 215.617 24.3338 216.637C26.241 216.989 28.5434 221.375 30.8871 221.64C48.8952 223.682 78.098 221.582 92.5722 191.052L86.9542 146.856L88.4083 82.3015C83.8627 78.6343 78.2113 76.251 71.6868 74.8814L65.1436 64.4933V64.4933H65.1436Z" fill="#92AAAA"/>
<path d="M111.331 46.4337C111.592 49.0062 111.261 51.4254 110.5 53.3651L114.497 77.7118L103.09 79.3138L100.264 54.444C99.1302 52.7041 98.3222 50.4048 98.0619 47.8323C97.4672 41.9554 99.9556 36.8782 103.62 36.492C107.284 36.1057 110.737 40.5568 111.331 46.4336V46.4337H111.331H111.331Z" fill="#FFB6B6"/>
<path d="M73.4078 84.1615C72.2135 85.96 72.5462 87.9816 72.261 90.4105C71.0505 100.722 90.4107 131.191 103.807 134.699C105.565 135.16 106.566 137.095 108.34 137.484H108.34C113.596 138.637 118.49 134.379 118.206 128.9L114.567 58.626L99.2803 63.9477L100.259 100.433C100.161 92.8742 93.3611 85.1781 88.2101 81.977C88.2101 81.977 77.7766 77.5827 73.4078 84.1615L73.4078 84.1615Z" fill="#92AAAA"/>
<path d="M55.6374 61.0891C67.3087 61.0891 76.7703 51.4325 76.7703 39.5206C76.7703 27.6086 67.3087 17.9521 55.6374 17.9521C43.966 17.9521 34.5045 27.6086 34.5045 39.5206C34.5045 51.4325 43.966 61.0891 55.6374 61.0891Z" fill="#FFB6B6"/>
<path d="M75.3218 23.6828C75.1401 23.7274 78.1037 20.7792 78.2299 20.7148C81.138 19.2308 78.1499 33.737 76.0489 33.3289C70.8797 32.3272 68.6478 30.3386 66.6412 35.3027C66.0814 36.6828 65.7324 38.241 64.6419 39.2279C63.1442 40.5709 60.6578 40.4596 59.4364 42.0623C58.4549 43.3535 58.7385 45.253 59.4655 46.7073C60.1925 48.1691 61.2976 49.4082 61.9592 50.8997C62.7008 52.5766 59.5382 57.9117 58.3314 60.9094V60.9168L58.3242 60.9343C58.0035 61.7206 57.2415 59.4556 56.4369 59.2295C55.4741 58.9589 54.0558 61.2791 52.5224 60.8574C52.5152 60.8574 52.5079 60.85 52.5006 60.85C51.0393 60.4345 49.4108 59.9893 47.7968 59.544H47.7895C43.2456 58.2827 42.0969 60.0932 41.8788 60.0412L39.058 57.0287C38.0899 56.3093 38.1993 53.9869 37.5167 53.3632C36.9584 52.853 35.5667 54.0318 35.1565 53.5415C33.1453 51.1373 32.6826 48.7323 31.497 43.9842C30.4137 39.6434 28.1672 26.6509 32.7838 26.0646C37.1386 25.5081 33.9543 19.3198 38.3382 19.5498C38.0765 18.422 38.5636 17.2125 39.3561 16.3814C40.1412 15.543 41.1882 15.0236 42.2423 14.5784C47.4406 12.4117 46.5754 10.5493 52.0571 11.8107C52.6024 11.0316 59.5944 9.00047 60.5832 9.2602C60.6559 9.27502 59.0584 12.4414 62.9625 11.8107C62.8171 12.7234 64.9454 10.7442 65.1435 14.0367C69.3075 11.4862 71.5486 17.5909 71.6867 18.4888C71.8685 19.6092 70.2108 19.0379 71.3159 19.2085C71.9703 19.3124 73.0899 20.6703 72.9808 21.3455C73.4534 20.6925 73.926 20.047 74.4058 19.394C74.493 19.4014 74.573 19.4163 74.6603 19.4311C76.8704 19.8615 74.3366 27.2355 74.4276 24.9368C74.5948 20.7148 77.5247 23.1857 75.3218 23.6828H75.3218Z" fill="#2F2E41"/>
<path d="M344.877 19.2609C344.096 25.8108 343.243 32.3518 342.318 38.8821C341.942 41.5344 341.545 44.2205 340.499 46.6788C339.786 48.3568 338.786 49.8891 337.792 51.4112C336.617 53.2099 335.423 55.0315 333.828 56.4533C332.232 57.8751 330.16 58.8735 328.048 58.7064C333.651 54.8572 337.417 48.3468 338.011 41.4805C338.291 38.2529 337.907 35.0086 337.834 31.7693C337.76 28.53 338.026 25.178 339.49 22.3031C340.955 19.4282 343.847 17.1269 347.021 17.2087L344.877 19.2609H344.877Z" fill="#2F2E41"/>
<path d="M288.095 158.961C283.537 162.734 277.933 163.393 275.581 160.433C273.228 157.472 275.016 152.012 279.575 148.239C281.57 146.587 283.766 145.532 285.801 145.116L305.315 129.373L312.358 138.876L292.374 153.387C291.555 155.334 290.091 157.309 288.095 158.961H288.095L288.095 158.961L288.095 158.961Z" fill="#A0616A"/>
<path d="M291.781 137.589L320.857 109.431L323.765 107.205C323.765 107.205 340.456 90.6091 344.778 90.229C346.608 90.0684 348.439 90.5341 349.981 91.5566C352.472 93.2054 353.763 95.9195 353.763 98.655C353.763 100.941 352.86 103.237 351.014 104.929L324.395 129.318L313.071 139.693L298.988 152.599L297.556 149.623L292.715 139.538L291.781 137.589V137.589L291.781 137.589H291.781Z" fill="#335E89"/>
<path d="M353.953 118.533L324.84 127.633C329.714 129.035 331.755 159.347 327.219 160.288C327.219 160.288 375.468 163.79 372.835 160.288C369.626 156.019 373.93 127.646 375.982 127.633L353.953 118.533Z" fill="#A0616A"/>
<path d="M392.691 273L390.146 241.658C390.146 230.446 389.434 220.317 388.292 211.287C383.719 175.04 372.254 156.46 372.254 156.46H329.36C329.302 156.527 329.244 156.579 329.185 156.646L329.178 156.653C319.058 167.509 313.794 194.807 311.453 211.287C310.341 219.13 309.89 224.525 309.89 224.525L305.695 262.575L308.727 273H333.686L333.293 270.767L349.353 211.287L349.549 210.56L349.724 211.287L364.613 273H392.691V273Z" fill="#2F2E41"/>
<path d="M330.239 100.453L339.303 81.7784L346.94 68.2113L353.116 61.7875H370.019L371.592 68.2113L381.034 73.5645L384.373 100.331L372.476 158.404C358.314 146.627 329.125 143.365 329.125 143.365L324.395 129.318L321.269 112.397L320.892 110.373L330.239 100.453V100.453V100.453Z" fill="#335E89"/>
<path d="M329.152 134.233C323.284 134.063 318.614 130.836 318.72 127.026C318.826 123.215 323.668 120.263 329.535 120.433C332.104 120.508 334.443 121.168 336.252 122.207L361.105 123.245L360.379 135.138L335.956 132.852C334.092 133.784 331.72 134.308 329.152 134.233L329.152 134.233V134.233Z" fill="#A0616A"/>
<path d="M360.935 93.6398L384.378 117.395L343.543 121.663L334.053 135.286L390.971 137.212C396.106 139.079 401.576 135.456 401.999 129.91V129.91C402.141 128.037 390.448 80.5125 383.369 76.1005C375.073 70.9295 360.935 93.6398 360.935 93.6398L365.565 85.7721L360.935 93.6398Z" fill="#335E89"/>
<path d="M377.22 38.4788C377.39 27.689 368.958 18.8011 358.386 18.6271C347.814 18.4531 339.106 27.0589 338.935 37.8488C338.765 48.6386 347.197 57.5265 357.769 57.7005C368.341 57.8745 377.049 49.2687 377.22 38.4788Z" fill="#A0616A"/>
<path d="M400.102 99.0433C399.623 100.898 395.886 101.856 395.013 104.237C392.236 105.855 393.741 92.6398 392.621 91.7716C391.756 91.1112 391.524 92.7065 391.327 91.3338C390.586 86.1843 385.736 87.3344 382.145 86.5033C381.738 85.6946 381.425 84.9081 381.222 84.1438C380.858 82.7636 379.201 82.2813 378.219 83.2979C377.776 82.8972 377.456 81.4799 377.143 80.0627C376.918 79.0313 376.692 78 376.431 77.347L373.93 71.589L374.737 75.8778C373.101 75.2768 371.45 75.9001 370.498 73.8373C369.277 71.1883 368.79 68.0867 369.677 65.3042C370.484 62.7814 371.843 57.7283 373.377 53.5434C371.639 54.827 369.553 55.762 367.132 56.2294C367.99 54.5673 368.862 52.8755 369.226 51.0279C369.582 49.1804 369.364 47.125 368.215 45.6558C367.27 44.4463 365.874 44.7505 364.696 43.7785C363.78 43.0217 362.988 41.0851 362.435 40.024C364.791 48.0154 366.572 56.504 363.577 64.1318C361.505 69.4149 357.143 73.7111 351.908 75.6626C354.693 73.6295 357.412 71.4628 359.498 68.7026C361.73 65.742 363.184 62.0022 362.741 58.2922C362.043 52.4674 351.457 34.0434 350.156 30.4224C350.869 33.9618 350.592 36.722 348.717 38.2432C348.229 33.1085 342.748 33.5759 339.76 31.5206C339.76 31.5206 337.448 18.1867 342.871 18.105C345.489 18.0679 348.229 11.7905 350.607 10.6701C354.402 8.88189 356.728 10.0988 360.938 10.2323C365.14 10.3585 369.175 12.2061 371.741 15.597C373.086 17.3705 373.581 15.9606 375.602 17.0662C377.521 18.1125 378.815 17.1404 380.989 17.2072C385.344 17.3259 389.568 19.7004 392.011 23.3733C394.453 27.0537 395.958 26.7123 394.991 32.4035C394.977 32.4703 394.977 32.6039 394.991 32.8042C395.522 41.7677 394.163 50.7534 390.68 59.0045C389.604 61.5422 394.867 64.1614 394.86 67.3298C394.853 71.0101 389.044 74.3641 389.582 75.9372C391.124 83.5131 399.783 81.8287 397.74 94.5097C397.572 95.541 400.422 97.8041 400.102 99.0433Z" fill="#2F2E41"/>
<path d="M347.064 75.8412C347.224 75.7893 347.384 75.7299 347.544 75.6631C347.341 75.8115 347.144 75.9525 346.941 76.1009L347.064 75.8412H347.064Z" fill="#2F2E41"/>
<path d="M374.031 13.3266C371.949 13.6425 369.833 10.116 371.015 5.22571C373.592 9.24707 374.909 13.7741 375.117 18.7467L373.728 19.1858L374.031 13.3266Z" fill="#92AAAA"/>
<path d="M384.671 8.76196C383.25 13.9016 376.033 17.3413 374.758 15.5526L374.612 18.6176L373.72 17.4461C376.309 13.5176 379.837 10.504 384.671 8.76196H384.671Z" fill="#92AAAA"/>
<path d="M226.192 147.358C226.192 145.651 227.553 144.261 229.226 144.261H277.998C279.672 144.261 281.033 145.651 281.033 147.358C281.033 149.066 279.672 150.455 277.998 150.455H229.226C227.553 150.455 226.192 149.066 226.192 147.358Z" fill="#E6E7E8"/>
<path d="M226.192 168.134C226.192 166.427 227.553 165.037 229.226 165.037H277.998C279.672 165.037 281.033 166.427 281.033 168.134C281.033 169.842 279.672 171.232 277.998 171.232H229.226C227.553 171.232 226.192 169.842 226.192 168.134Z" fill="#E6E7E8"/>
<path d="M191.164 160.938C189.491 160.938 188.13 159.548 188.13 157.841C188.13 156.133 189.491 154.744 191.164 154.744H277.998C279.672 154.744 281.033 156.133 281.033 157.841C281.033 159.548 279.672 160.938 277.998 160.938H191.164Z" fill="#E6E7E8"/>
<path d="M184.709 131.296L178.725 128.403C181.179 131.899 183.294 137.358 184.426 141.702C186.343 137.655 189.433 132.704 192.491 129.747L186.168 131.407C190.064 111.916 204.721 97.9235 221.504 97.9235V96.4395C203.973 96.4395 188.687 111.018 184.709 131.296Z" fill="#335E89"/>
<path d="M212.248 160.994H174.442C172.839 160.994 171.534 159.663 171.534 158.026C171.534 156.39 172.839 155.058 174.442 155.058H212.248C213.851 155.058 215.156 156.39 215.156 158.026C215.156 159.663 213.851 160.994 212.248 160.994Z" fill="#335E89"/>
<path d="M223.289 100.294C224.296 93.9603 220.082 87.9928 213.876 86.965C207.671 85.9372 201.824 90.2384 200.817 96.5719C199.81 102.905 204.024 108.873 210.229 109.901C216.435 110.929 222.282 106.627 223.289 100.294Z" fill="#3F3D56"/>
<path d="M150.256 14.3317C154.134 14.3317 157.277 11.1234 157.277 7.16585C157.277 3.20826 154.134 0 150.256 0C146.378 0 143.235 3.20826 143.235 7.16585C143.235 11.1234 146.378 14.3317 150.256 14.3317Z" fill="#E6E7E8"/>
<path d="M232.409 138.247C236.287 138.247 239.431 135.039 239.431 131.081C239.431 127.124 236.287 123.915 232.409 123.915C228.532 123.915 225.388 127.124 225.388 131.081C225.388 135.039 228.532 138.247 232.409 138.247Z" fill="#E6E7E8"/>
</svg>
