<svg width="446" height="357" viewBox="0 0 446 357" fill="none" xmlns="http://www.w3.org/2000/svg">
<path d="M348.408 57.5616H318.105V299.026C318.105 302.814 317.306 306.566 315.755 310.066C314.204 313.566 311.93 316.746 309.064 319.425C306.198 322.104 302.795 324.229 299.05 325.679C295.305 327.129 291.291 327.875 287.237 327.875H55.5532V328.151C55.5532 331.939 56.3516 335.691 57.9028 339.191C59.454 342.691 61.7277 345.871 64.594 348.55C67.4603 351.229 70.863 353.354 74.608 354.804C78.353 356.254 82.3668 357 86.4204 357H348.408C352.462 357 356.476 356.254 360.221 354.804C363.966 353.354 367.368 351.229 370.235 348.55C373.101 345.871 375.375 342.691 376.926 339.191C378.477 335.691 379.276 331.939 379.276 328.151V86.4106C379.276 82.6221 378.477 78.8707 376.926 75.3706C375.375 71.8705 373.101 68.6902 370.235 66.0113C367.368 63.3324 363.966 61.2074 360.221 59.7576C356.476 58.3078 352.462 57.5616 348.408 57.5616Z" fill="#F2F2F2"/>
<path d="M310.91 32.7915H12.8121C5.73618 32.7915 0 38.1526 0 44.7659V320.255C0 326.869 5.73618 332.23 12.8121 332.23H310.91C317.986 332.23 323.722 326.869 323.722 320.255V44.7659C323.722 38.1526 317.986 32.7915 310.91 32.7915Z" fill="#F2F2F2"/>
<path d="M30.8673 38.7242C24.3644 38.7242 18.1278 41.1385 13.5296 45.4361C8.9313 49.7338 6.34802 55.5626 6.34802 61.6403V303.381C6.34802 309.459 8.9313 315.288 13.5296 319.585C18.1278 323.883 24.3644 326.297 30.8673 326.297H198.074C263.962 326.297 317.374 276.377 317.374 214.797V61.6403C317.374 55.5626 314.791 49.7338 310.193 45.4361C305.594 41.1385 299.358 38.7242 292.855 38.7242H30.8673Z" fill="white"/>
<path d="M330.807 200.957C329.467 201.304 328.064 201.375 326.692 201.165C325.321 200.954 324.015 200.468 322.864 199.74C321.713 199.012 320.746 198.058 320.028 196.946C319.311 195.834 318.86 194.589 318.708 193.298L272.926 180.377L273.637 167.663L327.892 183.382C330.236 183.304 332.53 184.032 334.338 185.429C336.146 186.825 337.343 188.793 337.702 190.96C338.061 193.126 337.558 195.34 336.287 197.183C335.016 199.025 333.066 200.368 330.807 200.957V200.957Z" fill="#FFB6B6"/>
<path d="M176.669 135.373C172.033 131.758 178.821 113.837 176.991 108.643C176.881 108.329 176.777 108.013 176.679 107.697C176.472 107.027 176.518 106.31 176.81 105.668L194.017 98.1036C198.501 99.8157 202.632 102.243 206.226 105.277L232.808 133.652L259.216 155.943L270.803 160.771L309.201 176.778L308.803 177.851L308.799 177.854L304.579 189.31L304.579 189.316L313.022 194.817L285.38 190.926L267.099 183.878L249.496 177.093C223.506 162.474 180.745 154.897 176.669 135.373Z" fill="#4178AF"/>
<path d="M299.18 266.87C298.673 267.086 298.107 267.151 297.559 267.056C297.011 266.961 296.507 266.711 296.116 266.34C295.725 265.968 295.466 265.494 295.373 264.98C295.281 264.466 295.359 263.938 295.599 263.468C295.561 263.207 295.534 263.021 295.496 262.76C295.451 262.717 295.406 262.675 295.361 262.632C290.818 258.325 282.96 261.31 282.88 267.357C282.809 272.725 282.183 278.31 283.628 283.416C284.268 285.672 285.322 287.808 286.743 289.728C277.744 281.737 270.688 272.03 266.054 261.267C264.894 258.565 263.897 255.805 263.066 252.998C262.388 250.697 261.819 248.373 261.36 246.026C258.885 233.286 259.677 220.179 263.674 207.781C266.708 204.345 268.543 200.124 268.931 195.684C269.076 194.086 268.973 192.476 268.625 190.906C268.21 191.124 264.322 185.343 264.488 184.836C263.507 184.199 262.229 184.178 261.2 183.583C256.082 180.623 251.828 183.068 251.891 189.672C247.826 193.984 249.486 197.988 254.257 200.651C257.291 202.344 258.98 205.542 261.845 207.5C261.757 207.782 261.66 208.06 261.572 208.342C259.982 213.516 258.937 218.823 258.454 224.187C257.009 218.98 253.448 213.388 250.091 210.181C246.268 206.526 241.041 204.199 236.208 201.612C230.402 198.504 223.351 203.451 225.146 209.475C225.163 209.533 225.181 209.591 225.198 209.649C225.783 209.722 226.364 209.814 226.941 209.925C227.668 210.069 228.332 210.414 228.845 210.916C229.359 211.417 229.698 212.053 229.819 212.738C229.939 213.423 229.836 214.126 229.521 214.755C229.207 215.384 228.697 215.91 228.057 216.264L227.992 216.3C228.85 217.842 229.832 219.32 230.93 220.723C233.194 237.142 244.404 239.233 257.197 234.723C257.535 234.753 257.865 234.785 258.2 234.807C258.527 242.091 259.866 249.305 262.184 256.266C263.565 260.368 265.298 264.359 267.367 268.199L267.285 268.067C264.47 263.989 260.235 260.944 255.295 259.446C247.985 257.284 239.549 258.639 232.161 257.468C228.605 256.904 225.85 260.386 227.676 263.293C227.705 263.34 227.734 263.386 227.764 263.433C228.792 263.438 229.82 263.503 230.84 263.628C231.424 263.701 232.005 263.793 232.583 263.904C233.309 264.047 233.973 264.392 234.487 264.894C235 265.396 235.339 266.031 235.46 266.716C235.581 267.402 235.477 268.105 235.163 268.734C234.849 269.363 234.338 269.889 233.699 270.242L233.633 270.279C233.586 270.304 233.546 270.327 233.498 270.353C236.455 273.159 239.907 275.468 243.703 277.18C251.846 289.204 263.428 286.295 273.632 278.084L273.639 278.081C277.196 282.865 281.275 287.29 285.81 291.285L305.848 283.779C305.831 283.544 305.803 283.305 305.779 283.073C303.971 283.877 302.064 284.471 300.102 284.841C300.857 282.579 301.607 280.304 302.363 278.042C302.382 277.998 302.399 277.953 302.413 277.907C302.793 276.752 303.183 275.601 303.563 274.446L303.563 274.444C302.456 271.754 300.983 269.209 299.181 266.871L299.18 266.87Z" fill="#F2F2F2"/>
<path d="M189.044 283.351L188.814 283.083C188.153 279.107 189.044 283.351 189.044 283.351Z" fill="#2F2E41"/>
<path d="M200.781 326.241H136.587C131.6 314.653 128.138 306.365 128.138 306.365C128.138 306.365 127.297 314.483 126.098 326.241H68.0626C67.5195 294.29 66.7591 261.484 66.5088 251.065L177.903 253.384L188.983 266.516C189.021 266.736 189.059 266.978 189.106 267.251C189.554 269.919 195.586 298.561 200.781 326.241Z" fill="#2F2E41"/>
<path d="M199.807 101.522L199.797 101.503C199.443 100.889 198.873 100.408 198.184 100.14C191.136 95.029 183.419 92.6992 174.758 94.2926C173.34 90.2808 172.018 90.2808 172.018 90.2808L153.234 84.4826L150.532 69.0579L104.249 67.5938L100.043 86.8422C100.043 86.8422 74.1737 91.1763 74.1737 94.3105C74.1737 97.4447 78.4853 97.4447 74.1737 97.4447C69.8621 97.4447 68.7076 93.8628 64.9757 97.4447C64.6559 97.7456 64.3185 98.0297 63.9648 98.2954C63.9217 98.3312 63.8738 98.3626 63.8307 98.3984C59.6131 101.499 56.2987 105.542 54.193 110.155C52.0874 114.768 51.2583 119.802 51.7822 124.793L59.7395 198.773L68.2333 277.714L184.473 282.237L192.258 215.062L200.177 103.295C200.247 102.683 200.119 102.065 199.807 101.522Z" fill="#4178AF"/>
<path d="M8.99123 299.912C9.65489 301.472 10.3246 302.615 11.0003 303.181L236.438 303.629C237.114 303.063 237.784 301.92 238.447 300.359C246.332 281.82 231.458 261.716 210.112 261.678L37.3384 261.372C16.0213 261.334 1.11701 281.397 8.99123 299.912Z" fill="white"/>
<path d="M236.621 304.076L236.437 304.076L10.8168 303.628L10.6809 303.514C9.97821 302.926 9.27996 301.802 8.54616 300.077C6.67988 295.764 5.99151 291.084 6.54313 286.461C7.09475 281.837 8.86901 277.414 11.7059 273.591C14.5384 269.689 18.3501 266.494 22.808 264.286C27.266 262.078 32.2346 260.924 37.2799 260.924H37.3393L210.113 261.23C215.176 261.24 220.16 262.407 224.63 264.631C229.099 266.855 232.919 270.067 235.754 273.988C238.587 277.823 240.357 282.255 240.905 286.886C241.452 291.518 240.761 296.204 238.893 300.525C238.158 302.25 237.46 303.374 236.758 303.962L236.621 304.076ZM26.0626 302.691L217.215 302.15C230.708 302.111 240.633 289.938 236.635 277.894C236.258 276.689 235.693 275.542 234.961 274.49C232.213 270.69 228.512 267.577 224.18 265.422C219.848 263.266 215.018 262.135 210.111 262.126L37.3374 261.819H37.2799C35.086 261.888 32.9226 262.32 30.8906 263.096C19.7305 267.043 12.2678 276.964 11.6473 288.101C11.6394 288.243 11.6315 288.385 11.6237 288.527C11.5263 290.294 11.8021 292.061 12.4354 293.728C13.0688 295.395 14.0472 296.929 15.315 298.243C16.5827 299.556 18.1148 300.624 19.8239 301.384C21.533 302.144 23.3855 302.582 25.2758 302.673C25.5378 302.686 25.8001 302.692 26.0626 302.691L26.0626 302.691Z" fill="#E6E6E6"/>
<path d="M280.282 141.692C277.813 132 278.224 122.455 282.452 113.102C282.497 112.524 282.785 111.985 283.254 111.605C283.723 111.225 284.334 111.034 284.953 111.075L308.055 112.607C308.675 112.648 309.251 112.918 309.657 113.356C310.064 113.794 310.268 114.365 310.225 114.944L308.055 143.534C308.01 144.113 307.721 144.651 307.253 145.031C306.784 145.411 306.173 145.602 305.554 145.562L282.451 144.03C281.832 143.988 281.256 143.718 280.849 143.28C280.443 142.842 280.238 142.271 280.282 141.692Z" fill="#F2F2F2"/>
<path d="M282.709 133.174C280.733 128.398 281.997 121.83 284.105 114.794C284.147 114.252 284.417 113.748 284.856 113.392C285.295 113.036 285.867 112.857 286.447 112.895L306.301 114.212C306.881 114.251 307.421 114.503 307.802 114.914C308.183 115.324 308.374 115.859 308.333 116.401L306.402 141.842C306.36 142.384 306.09 142.888 305.651 143.244C305.212 143.6 304.639 143.779 304.06 143.741L291.76 142.925C289.178 142.751 286.774 141.627 285.077 139.799C283.381 137.971 282.529 135.589 282.709 133.174Z" fill="white"/>
<path d="M296.455 134.421C295.849 134.323 295.242 134.226 294.636 134.129C294.915 133.512 295.076 132.855 295.112 132.186C295.399 128.608 295.428 124.996 295.581 121.41C295.577 121.279 295.533 121.152 295.453 121.044C295.373 120.936 295.262 120.852 295.132 120.801C295.003 120.751 294.86 120.737 294.722 120.761C294.584 120.785 294.456 120.845 294.354 120.935C292.831 122.114 291.308 123.293 289.785 124.472C289.072 125.024 290.094 125.97 290.801 125.422C291.895 124.576 292.988 123.73 294.081 122.883C293.981 125.233 293.88 127.582 293.78 129.932C293.732 131.059 293.879 132.428 293.385 133.488C293.317 133.631 293.229 133.765 293.123 133.886C292.451 133.778 291.78 133.67 291.108 133.562C290.625 133.485 290.012 133.861 290.224 134.388C290.686 135.534 292.049 135.896 293.217 135.455C293.32 135.411 293.42 135.361 293.515 135.305L296.073 135.716C296.978 135.861 297.366 134.567 296.455 134.421Z" fill="#6C63FF"/>
<path d="M414.419 237.957C411.95 228.265 412.362 218.719 416.59 209.367C416.635 208.788 416.923 208.25 417.392 207.869C417.861 207.489 418.472 207.298 419.091 207.339L442.193 208.871C442.812 208.913 443.388 209.182 443.795 209.62C444.202 210.059 444.406 210.63 444.363 211.208L442.192 239.798C442.148 240.377 441.859 240.915 441.39 241.296C440.921 241.676 440.31 241.867 439.691 241.826L416.589 240.294C415.97 240.252 415.394 239.983 414.987 239.545C414.58 239.106 414.376 238.535 414.419 237.957Z" fill="#F2F2F2"/>
<path d="M416.847 229.439C414.871 224.663 416.135 218.094 418.242 211.059C418.284 210.517 418.554 210.012 418.993 209.656C419.433 209.3 420.005 209.122 420.585 209.16L440.439 210.476C441.019 210.515 441.559 210.768 441.94 211.178C442.32 211.588 442.512 212.123 442.471 212.665L440.54 238.106C440.498 238.648 440.228 239.153 439.789 239.509C439.349 239.865 438.777 240.043 438.197 240.005L425.898 239.19C423.315 239.016 420.912 237.891 419.215 236.063C417.518 234.235 416.667 231.853 416.847 229.439Z" fill="white"/>
<path d="M429.808 224.588C430.072 224.473 430.322 224.331 430.553 224.166C431.169 223.691 431.624 223.06 431.863 222.349C432.103 221.637 432.116 220.876 431.902 220.158C430.97 216.959 426.876 216.94 424.05 217.325C423.138 217.449 423.526 218.743 424.432 218.62C426.337 218.36 429.327 218.151 430.351 220.095C430.584 220.552 430.667 221.063 430.589 221.564C430.511 222.065 430.276 222.533 429.913 222.909C429.479 223.316 428.907 223.57 428.295 223.628C427.703 223.387 427.059 223.275 426.414 223.3C425.748 223.329 425.377 224.234 426.051 224.551C426.648 224.829 427.305 224.974 427.972 224.974C428.525 225.224 428.986 225.62 429.299 226.114C429.612 226.608 429.761 227.177 429.729 227.75C429.665 228.14 429.52 228.516 429.301 228.854C429.083 229.192 428.795 229.487 428.454 229.722C428.114 229.956 427.727 230.126 427.317 230.22C426.906 230.315 426.48 230.333 426.061 230.274L426.044 230.272C425.141 230.102 424.754 231.396 425.662 231.567C426.879 231.781 428.138 231.535 429.161 230.882C430.184 230.229 430.887 229.223 431.117 228.085C431.129 228.024 431.14 227.962 431.15 227.9C431.207 227.289 431.116 226.674 430.883 226.101C430.651 225.527 430.284 225.01 429.808 224.588Z" fill="#6C63FF"/>
<path d="M388.55 84.829C386.081 75.1373 386.493 65.5915 390.721 56.239C390.765 55.6604 391.054 55.122 391.522 54.7419C391.991 54.3617 392.602 54.1709 393.222 54.2113L416.324 55.7434C416.943 55.7851 417.519 56.0546 417.926 56.4928C418.332 56.9311 418.537 57.5022 418.493 58.0809L416.323 86.6708C416.278 87.2494 415.99 87.7879 415.521 88.168C415.052 88.5481 414.441 88.7389 413.822 88.6985L390.72 87.1665C390.101 87.1248 389.524 86.8552 389.118 86.417C388.711 85.9788 388.507 85.4077 388.55 84.829Z" fill="#F2F2F2"/>
<path d="M390.978 76.3112C389.002 71.5353 390.265 64.9668 392.373 57.9309C392.415 57.3891 392.685 56.8848 393.124 56.5288C393.563 56.1728 394.135 55.9941 394.715 56.0319L414.57 57.3486C415.15 57.3877 415.689 57.6401 416.07 58.0505C416.451 58.4609 416.642 58.9957 416.602 59.5377L414.67 84.9789C414.628 85.5208 414.358 86.0251 413.919 86.3811C413.48 86.7371 412.908 86.9158 412.328 86.8779L400.028 86.0623C397.446 85.8883 395.042 84.7639 393.346 82.9359C391.649 81.1078 390.797 78.7253 390.978 76.3112Z" fill="white"/>
<path d="M403.187 63.5083C401.152 62.8482 398.889 64.3525 398.658 66.3029C398.396 68.5136 400.94 70.2587 403.143 69.6579C404.029 69.4162 403.652 68.1196 402.761 68.3627C401.146 68.803 399.424 67.1737 400.352 65.717C400.563 65.3654 400.884 65.0822 401.271 64.905C401.659 64.7279 402.094 64.6652 402.521 64.7254C402.883 64.8191 403.216 64.9908 403.495 65.2268C403.773 65.4627 403.988 65.7564 404.123 66.0841C404.915 67.7525 403.974 69.4464 402.726 70.6591C402.014 71.3507 401.179 71.8882 400.412 72.5186C400.039 72.782 399.73 73.1154 399.503 73.4974C399.276 73.8795 399.138 74.3016 399.097 74.7367C399.117 75.226 399.28 75.7009 399.568 76.1098C399.856 76.5188 400.258 76.8464 400.731 77.0571C401.957 77.6461 403.35 77.4588 404.654 77.2628C405.565 77.1258 405.178 75.8312 404.272 75.9675C403.132 76.139 401.425 76.3987 400.702 75.2877C400.084 74.3363 401.358 73.5009 402.053 72.9947C403.798 71.7227 405.563 70.0801 405.825 67.9174C406.04 66.1456 405.077 64.1212 403.187 63.5083Z" fill="#6C63FF"/>
<path d="M52.5992 194.378L63.9818 199.169C58.6307 203.225 50.4818 208.683 42.5006 211.209L29.8198 203.127C25.0962 186.104 27.9897 168.561 33.6666 153.728C36.8119 145.485 40.9828 137.616 46.0936 130.284C45.5701 125.293 46.3994 120.259 48.505 115.646C50.6106 111.033 53.9248 106.99 58.142 103.89C58.1899 103.854 58.233 103.822 58.2761 103.787C62.4766 107.193 65.9078 111.349 68.369 116.01C70.8302 120.672 72.2719 125.745 72.6097 130.933L72.8636 134.855L73.3715 142.583L74.6601 162.32L59.378 184.528L52.5992 194.378Z" fill="#4178AF"/>
<path d="M85.3462 278.636C85.4792 278.791 85.6484 278.917 85.8409 279.003C86.0334 279.089 86.2442 279.134 86.4576 279.133H164.229C164.441 279.132 164.651 279.088 164.843 279.002C165.035 278.916 165.204 278.792 165.338 278.638C165.472 278.483 165.568 278.303 165.618 278.11C165.668 277.916 165.671 277.715 165.628 277.521L164.42 272.161C164.37 271.943 164.263 271.739 164.107 271.57C163.951 271.4 163.753 271.269 163.529 271.19C163.368 271.13 163.195 271.1 163.022 271.1H87.6601C87.4863 271.1 87.314 271.13 87.1523 271.19C86.9288 271.269 86.7302 271.4 86.5746 271.57C86.419 271.739 86.3112 271.943 86.2612 272.161L85.054 277.521C85.011 277.715 85.0149 277.916 85.0655 278.109C85.116 278.302 85.2119 278.482 85.3462 278.636Z" fill="#2F2E41"/>
<path d="M55.5724 158.659V242.503C55.5733 243.571 56.0278 244.596 56.8362 245.351C57.6446 246.107 58.7407 246.532 59.884 246.532H192.824C193.967 246.532 195.063 246.107 195.872 245.351C196.68 244.596 197.135 243.571 197.136 242.503V158.659C197.133 157.591 196.678 156.568 195.87 155.814C195.061 155.059 193.966 154.635 192.824 154.633H59.884C58.7417 154.635 57.6466 155.059 56.8385 155.814C56.0304 156.568 55.5751 157.591 55.5724 158.659Z" fill="#3F3D56"/>
<path d="M109.721 230.082V276.003H144.142V230.082C144.142 229.752 144.029 229.43 143.82 229.164C143.61 228.898 143.315 228.702 142.978 228.605C142.818 228.556 142.652 228.532 142.484 228.533H111.383C110.943 228.532 110.521 228.695 110.209 228.985C109.897 229.275 109.722 229.67 109.721 230.081V230.082ZM123.154 245.861C123.163 244.956 123.554 244.09 124.242 243.453C124.93 242.816 125.86 242.459 126.828 242.459C127.797 242.459 128.726 242.816 129.414 243.453C130.102 244.09 130.494 244.956 130.503 245.861V251.189C130.498 252.097 130.108 252.966 129.42 253.606C128.731 254.246 127.8 254.606 126.828 254.606C125.857 254.606 124.925 254.246 124.237 253.606C123.548 252.966 123.159 252.097 123.154 251.189V245.861Z" fill="#2F2E41"/>
<path d="M129.81 65.8747C146.353 65.8747 159.764 53.3406 159.764 37.879C159.764 22.4173 146.353 9.88321 129.81 9.88321C113.266 9.88321 99.8555 22.4173 99.8555 37.879C99.8555 53.3406 113.266 65.8747 129.81 65.8747Z" fill="#FFB6B6"/>
<path d="M165.675 32.9814C162.446 33.9184 159.332 34.4708 157.232 31.995C155.132 29.5192 155.681 26.6884 152.557 25.4949C150.034 24.5283 147.122 24.9425 144.578 25.8401C144.124 25.9979 143.681 26.1755 143.249 26.353C143.006 26.1557 142.763 25.9684 142.499 25.7908C140.514 24.4711 138.062 23.9133 135.65 24.2324C137.413 25.0284 138.864 26.3223 139.797 27.9312C138.932 28.3356 138.002 28.6378 137.17 29.0852C125.73 35.2321 113.008 37.7077 114.047 27.4479C117.508 35.97 114.817 39.008 109.741 46.7904L109.54 47.2441C110.047 45.2024 106.485 45.1056 103.409 45.804C101.136 46.3199 102.607 51.2708 105.519 54.6812C99.0078 45.5179 89.255 31.5274 97.6886 24.5085C98.9324 23.4733 99.713 22.0127 99.9365 18.2747C100.069 16.0584 104.105 15.503 106.237 16.4894C106.546 13.1569 107.792 9.95997 109.849 7.22296C111.906 4.48594 114.702 2.30621 117.952 0.90493C124.474 -1.80756 131.107 2.36506 138.193 3.17354C142.125 3.62213 145.107 5.1022 145.264 9.79203C145.369 12.9152 150.404 14.0334 153.697 14.5857C155.786 14.931 158.14 14.7238 159.807 15.9568C161.738 17.387 161.759 19.9022 161.749 22.3188C159.859 22.2684 157.996 22.7457 156.398 23.6898C158.354 23.7358 160.245 24.357 161.802 25.4653C161.832 25.4826 161.86 25.5024 161.886 25.5245C162.456 29.5883 162.224 30.4465 165.675 32.9814Z" fill="#2F2E41"/>
<path d="M187.278 169.488C198.983 166.089 211.513 169.765 223.282 166.627C225.988 165.935 228.547 164.812 230.846 163.307C232.806 161.918 234.647 160.387 236.351 158.728C239.891 155.456 243.736 152.019 249.055 152.057C256.059 152.107 261.437 156.97 266.105 161.263C266.765 161.87 267.782 160.921 267.121 160.314C262.832 156.368 258.197 152.206 252.09 151.028C249.351 150.46 246.492 150.682 243.891 151.665C241.634 152.623 239.572 153.941 237.797 155.559C235.917 157.17 234.183 158.925 232.277 160.512C230.287 162.203 227.995 163.555 225.505 164.506C220.109 166.514 214.191 166.756 208.453 166.698C201.25 166.625 193.875 166.166 186.896 168.193C186.016 168.449 186.391 169.746 187.278 169.488H187.278Z" fill="#3F3D56"/>
<path d="M268.672 152.211L272.27 158.139L274.011 161.007C274.32 161.517 274.638 162.023 274.94 162.537C275.125 162.853 275.529 163.422 275.143 163.721C274.804 163.876 274.423 163.932 274.049 163.881C273.415 163.882 272.78 163.869 272.146 163.863L268.578 163.829L261.203 163.759C261.017 163.765 260.841 163.839 260.711 163.964C260.582 164.089 260.509 164.257 260.509 164.431C260.509 164.605 260.582 164.773 260.711 164.898C260.841 165.023 261.017 165.097 261.203 165.103C265.484 165.143 269.768 165.228 274.049 165.224C274.796 165.291 275.543 165.1 276.15 164.687C276.447 164.411 276.644 164.054 276.712 163.668C276.78 163.281 276.717 162.885 276.531 162.534C276.109 161.673 275.623 160.84 275.078 160.042L273.511 157.461L269.913 151.533C269.813 151.386 269.657 151.28 269.475 151.239C269.294 151.198 269.103 151.224 268.942 151.312C268.781 151.4 268.663 151.543 268.613 151.71C268.562 151.878 268.584 152.058 268.672 152.211V152.211Z" fill="#3F3D56"/>
<path d="M316.228 166.736H283.158C282.977 166.737 282.798 166.704 282.63 166.64C282.463 166.576 282.31 166.482 282.182 166.362C282.053 166.243 281.951 166.101 281.881 165.945C281.811 165.789 281.775 165.622 281.775 165.452C281.774 165.283 281.809 165.116 281.878 164.959C281.947 164.802 282.048 164.66 282.176 164.54C282.303 164.42 282.455 164.325 282.622 164.26C282.79 164.195 282.969 164.161 283.15 164.161C283.153 164.161 283.155 164.161 283.158 164.161H316.228C316.409 164.16 316.589 164.193 316.756 164.257C316.924 164.321 317.076 164.415 317.205 164.535C317.333 164.654 317.435 164.796 317.505 164.952C317.575 165.108 317.611 165.275 317.612 165.445C317.612 165.614 317.577 165.782 317.508 165.938C317.44 166.095 317.338 166.237 317.211 166.357C317.083 166.477 316.931 166.572 316.764 166.637C316.597 166.702 316.418 166.736 316.237 166.736C316.234 166.736 316.231 166.736 316.228 166.736Z" fill="#E6E6E6"/>
<path d="M316.228 187.48H283.158C282.977 187.48 282.798 187.447 282.631 187.383C282.463 187.319 282.311 187.224 282.183 187.105C282.054 186.986 281.952 186.844 281.883 186.688C281.813 186.532 281.777 186.365 281.776 186.196C281.776 186.026 281.811 185.859 281.88 185.702C281.948 185.546 282.049 185.404 282.177 185.284C282.304 185.164 282.456 185.069 282.623 185.003C282.79 184.938 282.969 184.904 283.15 184.904C283.153 184.904 283.156 184.904 283.158 184.904H316.228C316.409 184.903 316.589 184.936 316.756 185C316.923 185.065 317.076 185.159 317.204 185.278C317.332 185.398 317.434 185.539 317.504 185.695C317.574 185.851 317.61 186.019 317.611 186.188C317.611 186.357 317.576 186.525 317.507 186.681C317.439 186.837 317.337 186.98 317.21 187.1C317.082 187.22 316.931 187.315 316.764 187.38C316.597 187.445 316.418 187.479 316.237 187.48C316.234 187.48 316.231 187.48 316.228 187.48Z" fill="#E6E6E6"/>
<path d="M348.692 177.108H283.158C282.977 177.109 282.798 177.076 282.63 177.012C282.463 176.948 282.31 176.853 282.182 176.734C282.053 176.615 281.951 176.473 281.881 176.317C281.811 176.161 281.775 175.993 281.775 175.824C281.774 175.655 281.809 175.487 281.878 175.331C281.947 175.174 282.048 175.032 282.176 174.912C282.303 174.792 282.455 174.696 282.622 174.631C282.79 174.566 282.969 174.533 283.15 174.532C283.153 174.532 283.155 174.532 283.158 174.532H348.692C348.873 174.532 349.053 174.564 349.22 174.628C349.388 174.693 349.54 174.787 349.669 174.906C349.797 175.025 349.899 175.167 349.969 175.323C350.039 175.479 350.075 175.647 350.076 175.816C350.076 175.985 350.041 176.153 349.972 176.31C349.904 176.466 349.802 176.609 349.675 176.728C349.547 176.848 349.395 176.944 349.228 177.009C349.061 177.074 348.882 177.108 348.701 177.108C348.698 177.108 348.695 177.108 348.692 177.108Z" fill="#E6E6E6"/>
<path d="M304.816 154.574C312.092 145.355 324.517 141.38 332.01 132.337C333.752 130.281 335.102 127.959 336 125.474C336.699 123.27 337.212 121.017 337.534 118.737C338.312 114.141 339.231 109.244 343.541 106.329C349.216 102.492 356.63 103.433 363.113 104.307C363.298 104.328 363.485 104.28 363.633 104.175C363.781 104.069 363.88 103.914 363.908 103.741C363.936 103.569 363.892 103.393 363.784 103.251C363.676 103.109 363.513 103.012 363.33 102.98C357.373 102.176 351.001 101.388 345.335 103.82C342.768 104.879 340.605 106.64 339.132 108.872C337.921 110.894 337.095 113.097 336.69 115.383C336.197 117.722 335.912 120.096 335.381 122.43C334.85 124.894 333.861 127.253 332.457 129.397C329.383 134.002 324.768 137.473 320.108 140.603C314.258 144.532 308.025 148.245 303.687 153.742C303.14 154.435 304.265 155.272 304.816 154.574L304.816 154.574Z" fill="#3F3D56"/>
<path d="M359.444 95.593L366.1 98.3772L369.32 99.7243C369.893 99.9637 370.47 100.195 371.038 100.443C371.387 100.595 372.074 100.83 371.952 101.285C371.87 101.594 371.426 101.844 371.172 102.018C370.662 102.371 370.142 102.711 369.628 103.058L366.731 105.006L360.746 109.032C360.599 109.14 360.504 109.297 360.479 109.469C360.454 109.642 360.502 109.817 360.612 109.957C360.723 110.098 360.887 110.192 361.071 110.222C361.254 110.251 361.443 110.212 361.597 110.114C365.072 107.777 368.577 105.474 372.024 103.101C372.668 102.741 373.149 102.173 373.376 101.505C373.44 101.118 373.373 100.722 373.183 100.373C372.993 100.023 372.69 99.7388 372.318 99.5591C371.432 99.0992 370.514 98.6973 369.568 98.3564L366.67 97.1439L360.014 94.3597C359.84 94.2961 359.647 94.2979 359.475 94.3649C359.303 94.4319 359.165 94.5588 359.091 94.7188C359.017 94.8788 359.013 95.0594 359.078 95.2225C359.144 95.3856 359.275 95.5185 359.444 95.593L359.444 95.593Z" fill="#3F3D56"/>
<path d="M419.227 102.709H386.157C385.976 102.71 385.796 102.677 385.629 102.613C385.461 102.549 385.309 102.455 385.18 102.335C385.052 102.216 384.95 102.074 384.88 101.918C384.81 101.762 384.774 101.595 384.773 101.425C384.773 101.256 384.808 101.089 384.877 100.932C384.946 100.775 385.047 100.633 385.174 100.513C385.302 100.393 385.454 100.298 385.621 100.233C385.788 100.168 385.968 100.134 386.149 100.134C386.151 100.134 386.154 100.134 386.157 100.134H419.227C419.408 100.133 419.588 100.166 419.755 100.23C419.923 100.294 420.075 100.388 420.204 100.508C420.332 100.627 420.434 100.769 420.504 100.925C420.574 101.081 420.61 101.248 420.611 101.418C420.611 101.587 420.576 101.755 420.507 101.911C420.438 102.068 420.337 102.21 420.21 102.33C420.082 102.45 419.93 102.545 419.763 102.61C419.596 102.675 419.416 102.709 419.235 102.709C419.233 102.709 419.23 102.709 419.227 102.709Z" fill="#6C63FF"/>
<path d="M330.206 195.234C337.482 204.453 349.907 208.428 357.401 217.471C359.143 219.527 360.493 221.849 361.391 224.334C362.09 226.538 362.602 228.791 362.924 231.071C363.702 235.667 364.622 240.564 368.931 243.478C374.606 247.316 382.021 246.375 388.504 245.5C388.689 245.48 388.875 245.528 389.024 245.633C389.172 245.739 389.271 245.894 389.299 246.066C389.327 246.239 389.282 246.415 389.174 246.557C389.067 246.699 388.904 246.796 388.72 246.828C382.764 247.632 376.391 248.42 370.725 245.988C368.158 244.929 365.995 243.167 364.522 240.936C363.311 238.914 362.485 236.711 362.081 234.425C361.587 232.086 361.302 229.712 360.772 227.378C360.241 224.914 359.251 222.555 357.847 220.411C354.773 215.806 350.159 212.335 345.498 209.205C339.648 205.276 333.416 201.563 329.078 196.066C328.53 195.373 329.655 194.536 330.206 195.234L330.206 195.234Z" fill="#3F3D56"/>
<path d="M384.834 254.215L391.49 251.431L394.711 250.084C395.283 249.844 395.86 249.613 396.428 249.365C396.778 249.213 397.464 248.978 397.343 248.523C397.26 248.214 396.816 247.964 396.563 247.789C396.053 247.437 395.533 247.097 395.018 246.75L392.122 244.802L386.136 240.776C385.99 240.668 385.894 240.511 385.869 240.338C385.844 240.166 385.892 239.991 386.003 239.851C386.113 239.71 386.277 239.615 386.461 239.586C386.645 239.557 386.833 239.595 386.987 239.694C390.462 242.031 393.967 244.334 397.414 246.707C398.058 247.067 398.539 247.635 398.766 248.303C398.83 248.69 398.763 249.086 398.573 249.435C398.383 249.785 398.081 250.069 397.709 250.249C396.823 250.709 395.904 251.111 394.959 251.452L392.06 252.664L385.404 255.448C385.231 255.512 385.038 255.51 384.865 255.443C384.693 255.376 384.556 255.249 384.482 255.089C384.408 254.929 384.403 254.749 384.469 254.585C384.535 254.422 384.666 254.29 384.834 254.215H384.834Z" fill="#3F3D56"/>
<path d="M444.618 250.912H411.547C411.182 250.913 410.831 250.779 410.572 250.538C410.313 250.298 410.166 249.971 410.165 249.63C410.163 249.288 410.307 248.96 410.564 248.718C410.821 248.475 411.17 248.338 411.535 248.336C411.539 248.336 411.543 248.336 411.547 248.336H444.618C444.983 248.335 445.333 248.469 445.593 248.71C445.852 248.95 445.998 249.277 446 249.618C446.002 249.96 445.858 250.288 445.601 250.53C445.344 250.773 444.995 250.91 444.63 250.912C444.626 250.912 444.622 250.912 444.618 250.912Z" fill="#6C63FF"/>
<path d="M67.628 200.853C67.0018 202.012 66.1137 203.031 65.025 203.838C63.9362 204.645 62.6729 205.221 61.3223 205.527C59.9718 205.833 58.5662 205.861 57.2029 205.61C55.8396 205.358 54.551 204.833 53.4263 204.07L18.9839 219.389L16.6757 210.366L51.7517 191.047C53.2665 189.374 55.3856 188.277 57.7074 187.966C60.0293 187.655 62.3927 188.151 64.3496 189.359C66.3066 190.568 67.7212 192.405 68.3254 194.524C68.9296 196.642 68.6815 198.894 67.628 200.853L67.628 200.853Z" fill="#FFB6B6"/>
<path d="M54.3557 154.322L30.1199 200.605L40.3623 196.266L47.4908 193.244L51.0646 205.933C51.0646 205.933 48.698 208.082 44.9661 210.908C39.615 214.964 31.4661 220.422 23.4849 222.947C17.2379 224.926 11.1011 225.11 6.49249 221.421C-2.25521 214.418 6.29608 186.609 14.5599 165.435C20.0931 151.255 25.4922 140.057 25.4922 140.057C25.4922 125.102 56.5444 103.599 62.3075 100.657C65.5987 98.9827 66.5087 101.422 66.5087 101.422L48.4489 126.132L53.8479 146.594L55.3761 152.374L54.3557 154.322Z" fill="#4178AF"/>
</svg>
