<svg width="389" height="395" viewBox="0 0 389 395" fill="none" xmlns="http://www.w3.org/2000/svg">
<g clip-path="url(#clip0_18_6)">
<path d="M87.9921 66.253L85.0348 81.8233L99.7789 85.9918L97.947 69.3687L87.9921 66.253Z" fill="#A0616A"/>
<path d="M0.990387 388.559C0.990387 389.049 1.38226 389.442 1.87024 389.442H388.019C388.507 389.442 388.899 389.049 388.899 388.559C388.899 388.07 388.507 387.677 388.019 387.677H1.87024C1.38226 387.677 0.990387 388.07 0.990387 388.559Z" fill="#3F3D56"/>
<path d="M264.222 177.147H112.164C94.9202 177.147 80.9415 191.165 80.9415 208.458V356.326C80.9415 373.619 94.9201 387.637 112.164 387.637H264.222C281.466 387.637 295.445 373.619 295.445 356.326V208.458C295.445 191.165 281.466 177.147 264.222 177.147V177.147Z" fill="white"/>
<path d="M264.223 388.379H112.164C94.5402 388.379 80.2022 374 80.2022 356.326V208.458C80.2022 190.784 94.5402 176.406 112.164 176.406H264.223C281.846 176.406 296.184 190.784 296.184 208.458V356.326C296.184 374 281.846 388.379 264.223 388.379H264.223ZM112.164 177.888C95.3554 177.888 81.6809 191.602 81.6809 208.458V356.326C81.6809 373.183 95.3554 386.896 112.164 386.896H264.223C281.031 386.896 294.705 373.183 294.705 356.326V208.458C294.705 191.602 281.031 177.888 264.223 177.888H112.164V177.888Z" fill="#3F3D56"/>
<path d="M275.237 241.253H214.118C211.525 241.253 209.416 239.138 209.416 236.538C209.416 233.939 211.525 231.823 214.118 231.823H275.237C277.829 231.823 279.938 233.939 279.938 236.538C279.938 239.138 277.829 241.253 275.237 241.253H275.237Z" fill="#6C63FF"/>
<path d="M217.899 278.331H158.488C156.99 278.331 155.771 277.109 155.771 275.607C155.771 274.105 156.99 272.883 158.488 272.883H217.899C219.397 272.883 220.615 274.105 220.615 275.607C220.615 277.109 219.397 278.331 217.899 278.331V278.331Z" fill="#6C63FF"/>
<path d="M133.927 187.274H100.008C99.8816 187.274 99.7789 187.377 99.7789 187.504V191.464C99.7789 191.591 99.8816 191.694 100.008 191.694H133.927C134.054 191.694 134.157 191.591 134.157 191.464V187.504C134.157 187.377 134.054 187.274 133.927 187.274Z" fill="#6C63FF"/>
<path d="M248.178 191.694C250.125 191.694 251.704 190.11 251.704 188.158C251.704 186.205 250.125 184.622 248.178 184.622C246.23 184.622 244.652 186.205 244.652 188.158C244.652 190.11 246.23 191.694 248.178 191.694Z" fill="#3F3D56"/>
<path d="M257.874 191.694C259.821 191.694 261.4 190.11 261.4 188.158C261.4 186.205 259.821 184.622 257.874 184.622C255.927 184.622 254.348 186.205 254.348 188.158C254.348 190.11 255.927 191.694 257.874 191.694Z" fill="#3F3D56"/>
<path d="M267.57 191.694C269.518 191.694 271.096 190.11 271.096 188.158C271.096 186.205 269.518 184.622 267.57 184.622C265.623 184.622 264.044 186.205 264.044 188.158C264.044 190.11 265.623 191.694 267.57 191.694Z" fill="#3F3D56"/>
<path d="M111.794 292.913C111.794 293.402 112.186 293.795 112.673 293.795H263.713C264.201 293.795 264.593 293.402 264.593 292.913C264.593 292.424 264.201 292.031 263.713 292.031H112.673C112.186 292.031 111.794 292.424 111.794 292.913Z" fill="#3F3D56"/>
<path d="M157.858 75.2787C161.073 72.6142 165.051 72.1183 166.741 74.1707C168.432 76.2232 167.195 80.0463 163.978 82.7113C162.708 83.7935 161.197 84.5549 159.573 84.9317L145.807 96.0488L140.743 89.4591L154.851 79.1992C155.527 77.6703 156.558 76.326 157.858 75.2787H157.858Z" fill="#A0616A"/>
<path d="M78.2901 100.362C78.2831 99.8702 78.2877 95.5816 81.4536 92.871C85.0903 89.7573 90.222 91.0176 92.0219 91.4596C96.1796 92.4807 96.5206 94.2694 100.425 96.1072C107.73 99.5456 98.5773 97.7857 102.924 96.6832C104.429 96.3015 126.074 94.7961 131.462 91.4704C141.941 85.0024 149.081 81.0802 149.081 81.0802L153.749 90.442C153.749 90.442 147 99.8535 137.5 106.826C127.757 113.978 122.885 117.554 115.48 118.935C114.843 119.054 99.1616 121.739 86.5316 112.277C83.6507 110.118 78.3723 106.163 78.2901 100.362V100.362V100.362Z" fill="#E6E6E6"/>
<path d="M92.7692 76.5526C101.749 76.5526 109.029 69.2521 109.029 60.2463C109.029 51.2406 101.749 43.94 92.7692 43.94C83.789 43.94 76.5092 51.2406 76.5092 60.2463C76.5092 69.2521 83.789 76.5526 92.7692 76.5526Z" fill="#A0616A"/>
<path d="M220.111 169.799L203.366 152.609L194.722 161.651L207.198 178.133L219.573 179.553L220.111 169.799Z" fill="#A0616A"/>
<path d="M124.494 137.564C125.473 137.645 128.586 138.271 131.561 136.629C133.591 135.509 134.632 133.843 134.984 133.314C139.347 126.742 156.094 116.494 171.123 115.864C174.527 115.721 176.767 116.116 178.803 117.181C181.691 118.69 182.844 120.852 186.508 125.917C188.512 128.688 190.729 131.298 192.758 134.05C204.633 150.167 209.135 151.432 208.675 156.599C208.164 162.331 201.999 167.77 197.902 167.142C196.224 166.885 195.574 165.715 193.332 163.346C186.758 156.4 184.039 157.684 179.359 152.364C173.895 146.152 174.61 141.002 171.759 140.804C169.115 140.619 167.992 145.012 162.348 150.849C159.765 153.519 157.926 154.744 152.324 158.642C130.505 173.822 130.157 174.889 125.754 176.099C123.828 176.629 110.154 180.388 105.284 174.406C97.6613 165.044 115.668 136.828 124.494 137.564L124.494 137.564Z" fill="#2F2E41"/>
<path d="M214.992 173.683C216.223 173.128 217.663 172.48 218.127 170.989C218.44 169.98 218.26 168.736 217.612 167.876C216.864 166.884 215.757 166.753 215.802 166.578C215.87 166.31 218.487 166.415 221.36 167.433C221.902 167.625 224.358 168.525 227.482 170.971C229.985 172.931 229.648 173.324 231.217 174.453C236.035 177.922 240.554 175.188 243.161 178.441C244.167 179.696 244.596 181.478 244.173 182.92C243.322 185.814 239.187 186.81 236.927 187.324C231.485 188.562 227.365 187.551 223.064 186.824C208.435 184.352 200.215 186.604 199.115 183.205C198.907 182.562 199.245 182.616 200.373 177.896C201.486 173.237 201.45 171.957 202.398 171.584C203.825 171.023 204.784 173.577 208.379 174.451C211.565 175.226 214.194 174.042 214.992 173.683L214.992 173.683Z" fill="#2F2E41"/>
<path d="M190.34 226.033L186.11 202.379L173.894 204.994L174.988 225.658L184.433 233.801L190.34 226.033Z" fill="#A0616A"/>
<path d="M129.271 145.514C130.036 146.134 132.261 148.404 135.642 148.721C137.949 148.937 139.743 148.145 140.331 147.905C147.621 144.924 167.216 145.876 180.006 153.818C182.902 155.616 184.534 157.205 185.623 159.233C187.167 162.107 186.91 164.546 187.106 170.8C187.213 174.221 187.587 177.63 187.724 181.05C188.526 201.072 191.542 204.654 188.269 208.671C184.636 213.127 176.49 214.155 173.451 211.328C172.206 210.17 172.324 208.836 171.795 205.614C170.245 196.165 167.276 195.695 166.382 188.657C165.339 180.441 168.814 176.582 166.567 174.812C164.483 173.171 161.093 176.174 153.155 177.825C149.523 178.58 147.315 178.558 140.496 178.628C113.943 178.902 113.058 179.589 108.736 178.111C106.846 177.464 93.4267 172.875 92.7462 165.182C91.6814 153.143 122.38 139.936 129.271 145.514L129.271 145.514V145.514Z" fill="#2F2E41"/>
<path d="M183.929 226.364C185.259 226.599 186.814 226.873 188.032 225.9C188.856 225.242 189.404 224.111 189.349 223.035C189.286 221.793 188.443 221.061 188.578 220.941C188.784 220.759 190.891 222.319 192.698 224.779C193.039 225.243 194.567 227.371 195.783 231.154C196.756 234.185 196.258 234.32 196.924 236.139C198.968 241.722 204.238 242.005 204.574 246.164C204.703 247.77 204.06 249.486 202.903 250.44C200.579 252.356 196.6 250.851 194.442 250.004C189.245 247.964 186.402 244.808 183.25 241.784C172.529 231.5 164.468 228.734 165.46 225.302C165.648 224.653 165.897 224.889 169.474 221.618C173.004 218.39 173.69 217.31 174.684 217.536C176.179 217.875 175.542 220.528 178.027 223.276C180.23 225.711 183.068 226.212 183.929 226.364H183.929Z" fill="#2F2E41"/>
<path d="M94.986 63.3636C95.619 61.0928 94.8239 60.2653 95.6343 59.246C95.6343 59.2459 95.9604 58.8358 98.8758 57.7289C98.0157 52.7239 98.6597 51.8776 98.6597 51.8775C99.402 50.9021 100.889 50.6664 101.901 50.794C104.042 51.0638 104.421 53.0047 105.791 52.9611C107.684 52.901 109.953 49.1021 109.249 45.8094C108.674 43.1236 106.196 41.1289 105.575 41.4751C104.959 41.8182 102.742 40.305 101.901 40.6082C101.327 40.8152 98.6243 40.5398 98.0114 40.8249C97.3422 41.1363 95.4255 43.075 95.2422 42.8308C93.9688 41.1333 93.9959 40.5406 93.2572 40.1747C91.948 39.5265 90.5248 40.7247 88.0707 41.9085C83.0213 44.3442 81.5428 42.8913 79.2105 44.9425C78.0323 45.9788 77.4005 47.9591 76.185 51.8775C74.4852 57.3574 73.6353 60.0973 74.4562 62.7135C75.2934 65.3814 76.5263 64.8008 78.3461 68.5649C80.3717 72.755 79.6736 75.1905 81.5876 76.15C83.0669 76.8917 85.4443 76.4197 86.3419 75.0664C87.8787 72.7496 83.9065 69.6155 85.2614 65.9643C86.093 63.723 88.6584 62.0235 90.2317 62.4968C92.0106 63.0318 92.1416 66.2305 93.2572 66.181C94.2124 66.1386 94.8757 63.7593 94.986 63.3636L94.986 63.3636L94.986 63.3636Z" fill="#2F2E41"/>
<path d="M82.6681 78.9674C85.9955 75.2259 99.5487 79.0984 100.821 85.0355C101.344 87.4775 99.4124 88.5086 99.9564 91.3203C100.752 95.4329 105.257 95.1525 108.6 99.3389C113.348 105.282 108.457 111.092 113.787 121.011C114.926 123.13 115.886 124.917 117.893 126.645C122.499 130.613 126.785 129.252 129.13 132.93C130.884 135.681 130.163 139.071 129.995 139.865C129.303 143.122 127.427 143.915 126.105 146.584C123.906 151.023 126.396 154.282 126.537 159.587C126.714 166.223 123.197 175.423 116.164 178.441C108.263 181.832 98.733 176.216 94.1216 170.639C91.3699 167.312 90.5711 164.242 89.3673 160.454C83.9872 143.521 80.9477 145.052 76.8333 131.63C72.1299 116.286 71.2053 98.3091 76.8333 92.6206C77.5793 91.8667 79.6323 90.1239 80.9393 86.986C82.6981 82.7634 81.1786 80.6422 82.6681 78.9674H82.6681V78.9674Z" fill="#E6E6E6"/>
<path d="M131.833 166.062C134.413 169.349 134.813 173.349 132.727 174.995C130.641 176.641 126.859 175.31 124.279 172.022C123.23 170.722 122.507 169.19 122.17 167.553L111.415 153.487L116.972 149.236L127.997 162.955C129.505 163.669 130.82 164.734 131.833 166.062H131.833H131.833Z" fill="#A0616A"/>
<path d="M92.4446 93.2262C92.9231 93.119 97.1104 92.2485 100.402 94.8035C104.184 97.7385 104.001 103.034 103.937 104.891C103.788 109.181 102.112 109.881 101.114 114.089C99.2484 121.962 102.802 129.279 104.765 133.322C105.445 134.721 107.628 139.003 111.974 143.614C120.426 152.582 127.967 157.301 127.967 157.301L119.866 164.523C119.866 164.523 106.961 160.578 98.2162 152.675C89.2465 144.568 75.4525 115.885 72.593 108.898C72.3468 108.296 75.835 118.079 82.4953 103.748C84.0145 100.48 86.798 94.4907 92.4446 93.2262H92.4446Z" fill="#E6E6E6"/>
<path d="M203.528 313.111C198.379 313.903 194.612 317.209 195.115 320.495C195.618 323.782 200.199 325.803 205.351 325.011C207.413 324.723 209.376 323.943 211.076 322.738L232.853 319.108L231.399 310.476L209.672 313.559C207.689 312.92 205.582 312.766 203.528 313.111H203.528Z" fill="#FFB6B6"/>
<path d="M297.369 286.203L288.925 304.172L246.476 318.502L211.252 320.387L210.37 311.903L248.544 303.898L287.716 285.334L297.369 286.203Z" fill="#E6E6E6"/>
<path d="M219.077 354.431L211.496 373.661L201.686 366.953L207.483 346.829L219.077 354.431Z" fill="#FFB6B6"/>
<path d="M187.416 347.276L167.348 366.506L175.375 375.003L195.888 358.903L187.416 347.276Z" fill="#FFB6B6"/>
<path d="M301.129 284.667L300.906 283.102L295.778 273.04L278.833 277.512L281.954 291.375L301.129 284.667Z" fill="#FFB6B6"/>
<path d="M293.994 351.748L294.516 358.465C294.516 358.465 296.67 386.63 279.279 388.866C261.887 391.102 254.306 393.338 244.05 375.897L227.996 347.276L218.619 358.465L206.145 348.618C206.145 348.618 215.064 313.736 222.199 312.394C223.09 312.226 223.982 312.142 224.86 312.124C230.767 312.001 236.335 314.898 239.869 319.646L260.103 346.829L267.461 343.475L293.994 351.748V351.748Z" fill="#2F2E41"/>
<path d="M197.672 372.767L201.686 365.164L213.28 373.214C213.28 373.214 215.956 383.053 211.942 384.394C207.929 385.736 196.78 383.947 196.78 383.947C196.78 383.947 176.267 388.419 175.821 384.394C175.375 380.369 185.186 379.475 185.186 379.475L197.672 372.767L197.672 372.767H197.672Z" fill="#2F2E41"/>
<path d="M241.374 367.4L210.381 347.817L194.551 362.034L183.848 349.512C183.848 349.512 203.469 320.444 209.266 319.102C215.064 317.76 224.428 316.866 224.428 316.866L252.968 343.251L241.374 367.4V367.4Z" fill="#2F2E41"/>
<path d="M166.903 364.717L177.159 375.897L175.806 377.058C175.806 377.058 173.146 388.68 166.903 384.748C160.659 380.817 160.213 379.922 160.213 379.922C160.213 379.922 142.376 383.947 140.592 376.792C138.808 369.636 143.714 370.978 143.714 370.978L148.168 373.661L166.903 364.717L166.903 364.717Z" fill="#2F2E41"/>
<path d="M284.184 282.431C292.065 282.431 298.454 276.024 298.454 268.12C298.454 260.217 292.065 253.81 284.184 253.81C276.303 253.81 269.914 260.217 269.914 268.12C269.914 276.024 276.303 282.431 284.184 282.431Z" fill="#FFB6B6"/>
<path d="M280.839 288.468L301.352 282.207C301.352 282.207 309.379 300.99 308.041 309.487C306.704 317.984 294.516 358.465 294.516 358.465L267.461 343.475C267.461 343.475 267.015 334.531 265.677 330.506C264.34 326.481 260.103 314.183 269.468 303.897C278.833 293.611 280.839 288.468 280.839 288.468L280.839 288.468Z" fill="#E6E6E6"/>
<path d="M235.691 382.374C232.353 386.384 231.711 391.363 234.256 393.493C236.802 395.623 241.571 394.099 244.91 390.086C246.266 388.501 247.223 386.614 247.703 384.582L261.634 367.409L254.848 361.901L240.593 378.632C238.684 379.469 237.004 380.752 235.691 382.374L235.691 382.374Z" fill="#FFB6B6"/>
<path d="M296.574 297.491L301.422 316.751L277.692 354.845L253.467 379.262L245.615 372.729L270.046 342.243L288.565 302.964L296.574 297.491Z" fill="#E6E6E6"/>
<path d="M271.029 265.661C274.688 265.652 274.896 265.676 275.488 265.661C280.027 265.541 281.214 263.75 283.515 263.872C287.621 264.09 282.202 284.737 279.947 294.282C277.737 303.643 285.208 312.032 285.745 312.618C293.328 320.888 306.648 322.4 308.933 318.878C310.783 316.028 304.227 311.693 305.812 305.462C307.361 299.371 314.515 300.02 316.514 294.282C318.608 288.273 311.571 285.242 307.15 270.58C304.61 262.159 305.06 260.59 302.69 255.375C296.357 241.434 265.314 247.37 268.799 260.294C269.473 262.794 267.679 265.669 271.029 265.661V265.661Z" fill="#2F2E41"/>
<path d="M316.596 95.7751H166.621C162.38 95.7751 158.929 92.3145 158.929 88.0615V8.16801C158.929 3.91496 162.38 0.4544 166.621 0.4544H316.596C320.837 0.4544 324.288 3.91496 324.288 8.16801V88.0615C324.288 92.3145 320.837 95.7751 316.596 95.7751Z" fill="white"/>
<path d="M316.596 95.7751H166.621C162.38 95.7751 158.929 92.3145 158.929 88.0615V8.16801C158.929 3.91496 162.38 0.4544 166.621 0.4544H316.596C320.837 0.4544 324.288 3.91496 324.288 8.16801V88.0615C324.288 92.3145 320.837 95.7751 316.596 95.7751ZM166.621 1.74252C163.088 1.74252 160.214 4.62506 160.214 8.16801V88.0615C160.214 91.6044 163.088 94.487 166.621 94.487H316.596C320.129 94.487 323.003 91.6044 323.003 88.0615V8.16801C323.003 4.62506 320.129 1.74252 316.596 1.74252H166.621Z" fill="#3F3D56"/>
<path d="M305.021 10.1153C306.085 10.1153 306.948 9.25022 306.948 8.18311C306.948 7.116 306.085 6.25094 305.021 6.25094C303.957 6.25094 303.094 7.116 303.094 8.18311C303.094 9.25022 303.957 10.1153 305.021 10.1153Z" fill="#3F3D56"/>
<path d="M310.159 10.1153C311.223 10.1153 312.086 9.25022 312.086 8.18311C312.086 7.116 311.223 6.25094 310.159 6.25094C309.095 6.25094 308.232 7.116 308.232 8.18311C308.232 9.25022 309.095 10.1153 310.159 10.1153Z" fill="#3F3D56"/>
<path d="M315.297 10.1153C316.361 10.1153 317.223 9.25022 317.223 8.18311C317.223 7.116 316.361 6.25094 315.297 6.25094C314.233 6.25094 313.37 7.116 313.37 8.18311C313.37 9.25022 314.233 10.1153 315.297 10.1153Z" fill="#3F3D56"/>
<path d="M169.847 39.42C169.316 39.42 168.884 39.8533 168.884 40.386C168.884 40.6458 168.984 40.8861 169.166 41.0634C169.349 41.2515 169.589 41.3521 169.847 41.3521H314.012C314.543 41.3521 314.976 40.9188 314.976 40.386C314.976 40.1263 314.876 39.886 314.694 39.7087C314.511 39.5206 314.271 39.42 314.012 39.42H169.847Z" fill="#E6E6E6"/>
<path d="M296.03 39.0979V41.6741H169.847C169.494 41.6741 169.173 41.5324 168.942 41.2941C168.704 41.0623 168.563 40.7403 168.563 40.386C168.563 39.6775 169.141 39.0979 169.847 39.0979H296.03Z" fill="#6C63FF"/>
<path d="M312.407 34.2675H299.562C298.146 34.2675 296.993 33.1121 296.993 31.6913C296.993 30.2704 298.146 29.115 299.562 29.115H312.407C313.823 29.115 314.976 30.2704 314.976 31.6913C314.976 33.1121 313.823 34.2675 312.407 34.2675Z" fill="#E6E6E6"/>
<path d="M228.275 20.7422H170.811C169.394 20.7422 168.242 19.5868 168.242 18.166C168.242 16.7452 169.394 15.5898 170.811 15.5898H228.275C229.691 15.5898 230.844 16.7452 230.844 18.166C230.844 19.5868 229.691 20.7422 228.275 20.7422Z" fill="#E6E6E6"/>
<path d="M169.847 68.4026C169.316 68.4026 168.884 68.836 168.884 69.3687C168.884 69.6284 168.984 69.8687 169.166 70.0461C169.349 70.2341 169.589 70.3348 169.847 70.3348H314.012C314.543 70.3348 314.976 69.9014 314.976 69.3687C314.976 69.1089 314.876 68.8687 314.694 68.6913C314.511 68.5032 314.271 68.4026 314.012 68.4026H169.847Z" fill="#E6E6E6"/>
<path d="M246.578 68.0806V70.6568H169.847C169.494 70.6568 169.173 70.5151 168.942 70.2768C168.704 70.045 168.563 69.7229 168.563 69.3687C168.563 68.6602 169.141 68.0806 169.847 68.0806H246.578Z" fill="#6C63FF"/>
<path d="M312.407 63.2501H299.562C298.146 63.2501 296.993 62.0947 296.993 60.6739C296.993 59.2531 298.146 58.0977 299.562 58.0977H312.407C313.823 58.0977 314.976 59.2531 314.976 60.6739C314.976 62.0947 313.823 63.2501 312.407 63.2501Z" fill="#E6E6E6"/>
</g>
<defs>
<clipPath id="clip0_18_6">
<rect width="387.908" height="394.001" fill="white" transform="translate(0.990417 0.454407)"/>
</clipPath>
</defs>
</svg>
