<svg width="99" height="45" viewBox="0 0 99 45" fill="none" xmlns="http://www.w3.org/2000/svg">
<path d="M40.5833 35.875V44.7917H22.75C10.4387 44.7917 0.458344 34.8114 0.458344 22.5C0.458344 10.1887 10.4387 0.208374 22.75 0.208374H40.5833V9.12504H22.75C15.3632 9.12504 9.37501 15.1132 9.37501 22.5C9.37501 29.8868 15.3632 35.875 22.75 35.875H40.5833Z" fill="black"/>
<path d="M58.4167 9.12504V0.208374H76.25C88.5614 0.208374 98.5417 10.1887 98.5417 22.5C98.5417 34.8114 88.5614 44.7917 76.25 44.7917H58.4167V35.875H76.25C83.6368 35.875 89.625 29.8868 89.625 22.5C89.625 15.1132 83.6368 9.12504 76.25 9.12504H58.4167Z" fill="black"/>
<path d="M71.7917 18.0417H27.2083V26.9584H71.7917V18.0417Z" fill="black"/>
</svg>
