<svg width="47" height="47" viewBox="0 0 47 47" fill="none" xmlns="http://www.w3.org/2000/svg">
<g clip-path="url(#clip0_69_2)">
<path d="M23.5 0C10.4759 0 0 10.4759 0 23.5C0 36.5241 10.4759 47 23.5 47C36.5241 47 47 36.5241 47 23.5C47 10.4759 36.3825 0 23.5 0ZM13.0241 12.8825H33.9759C34.259 12.8825 34.5422 12.8825 34.8253 13.0241C34.8253 13.0241 34.6837 13.0241 34.6837 13.1657L25.3404 23.7831C24.9157 24.3494 24.2078 24.6325 23.5 24.6325C22.7922 24.6325 22.0843 24.3494 21.6596 23.7831L12.1747 13.0241C12.4578 12.8825 12.741 12.8825 13.0241 12.8825ZM37.2319 28.3133C37.2319 31.4277 34.6837 33.9759 31.5693 33.9759H15.4307C12.3163 33.9759 9.76807 31.4277 9.76807 28.3133V16.1386C9.76807 15.7139 9.90964 15.2892 10.0512 14.8645L19.5361 25.6235C20.5271 26.756 21.9428 27.4639 23.5 27.4639C25.0572 27.4639 26.4729 26.756 27.4639 25.6235L36.8072 15.006L36.9488 14.8645C37.0904 15.2892 37.2319 15.7139 37.2319 16.1386V28.3133Z" fill="#283489"/>
</g>
<defs>
<clipPath id="clip0_69_2">
<rect width="47" height="47" fill="white"/>
</clipPath>
</defs>
</svg>
