<svg viewBox="0 0 1626 74" fill="none" xmlns="http://www.w3.org/2000/svg">
<path fill-rule="evenodd" clip-rule="evenodd" d="M1441.78 21.7837C1473.83 17.5769 1513 13.9729 1556.07 14.6612C1581.08 15.0604 1605.35 16.8541 1625.37 19.4559V73.8064L0.626648 73.8064V62.9442C3.22506 62.1228 5.81555 61.3005 8.40632 60.4782C26.1816 54.8361 43.9699 49.1899 64.4213 43.7829C114.891 30.4438 181.823 17.5038 267.803 9.6917C309.933 5.86203 356.678 3.36077 403.959 1.7185C455.18 -0.0614281 509.806 0.229034 555.912 4.56116C591.171 7.87186 615.913 12.8496 632.333 18.7689C642.893 22.5831 650.257 26.5818 657.617 30.5777C660.815 32.3145 664.013 34.0508 667.472 35.7712C678.076 41.0449 691.376 46.2939 714.001 50.5751C737.196 54.9636 770.157 57.4401 804.379 58.9392C876.523 62.1054 963.177 61.5671 1025.11 54.2974C1028.28 53.9227 1031.44 53.5393 1034.6 53.1553C1044.88 51.9051 1055.23 50.6477 1066.59 49.661C1083.52 48.1853 1102.44 47.5961 1121.54 47.3208C1129.48 47.2095 1137.38 47.1153 1145.26 47.0215C1179.08 46.6187 1212.38 46.222 1245.15 44.5016C1285.55 42.3802 1319.35 38.6001 1352.62 34.4827C1369.8 32.3578 1385.58 29.9806 1401.36 27.6032C1414.56 25.6144 1427.76 23.6253 1441.78 21.7837Z" fill="#283489"/>
</svg>
