<svg viewBox="0 0 1626 93" fill="none" xmlns="http://www.w3.org/2000/svg">
<g clip-path="url(#clip0_47_175)">
<path d="M68.4852 74.7C110.661 75.5604 149.02 71.0554 180.398 65.7967C210.541 60.7428 236.816 54.801 267.703 49.9226C300.282 44.7758 333.378 40.0505 372.939 37.3988C412.5 34.7471 452.856 34.6111 493.974 33.8746C512.676 33.5305 531.208 32.794 547.786 30.9493C562.324 29.337 575.169 27.1464 588.404 25.1538C649.044 16.0664 733.895 15.3935 804.538 19.3513C838.048 21.2252 870.323 24.3209 893.036 29.8067C915.19 35.1583 928.213 41.7197 938.596 48.3119C949.775 55.4101 958.169 62.7251 973.004 69.5652C989.082 76.9645 1013.31 83.1869 1047.84 87.3253C1092.98 92.7406 1146.47 93.1037 1196.63 90.8787C1242.92 88.8258 1288.7 85.6992 1329.95 80.912C1414.14 71.1466 1479.68 54.9713 1529.1 38.297C1555.19 29.4918 1576.85 20.179 1599.83 11.0314C1608.4 7.61737 1616.91 4.1959 1625.37 0.766968H0.626648V68.7066C20.2336 71.9588 43.9955 74.201 68.4852 74.7Z" fill="#283489"/>
</g>
<defs>
<clipPath id="clip0_47_175">
<rect width="1624.75" height="91.392" fill="white" transform="translate(0.626648 0.766968)"/>
</clipPath>
</defs>
</svg>
